<svg width="75" height="75" viewBox="0 0 75 75" fill="none" xmlns="http://www.w3.org/2000/svg">
<rect width="75" height="75" fill="#A06A55"/>
<path d="M36.9529 38.9031C35.3935 36.389 34.2623 34.3047 32.6951 30.3797C30.0451 23.75 48.8123 17.7593 41.2029 6.24841C44.5013 14.2 29.3638 19.1156 27.9576 25.7375C26.6716 31.8281 36.9451 38.9031 36.9529 38.9031Z" fill="#F44336"/>
<path d="M37.3094 26.9844C37.0094 30.9156 40.7922 33.0109 40.9016 35.8828C40.9891 38.2203 38.6407 40.1687 38.6407 40.1687C38.6407 40.1687 42.9032 39.3312 44.2329 35.7656C45.7094 31.8062 41.3672 29.0953 41.8141 25.925C42.2313 22.8968 51.2375 17.264 51.2375 17.264C51.2375 17.264 37.986 18.1422 37.3094 26.9844Z" fill="#F44336"/>
<path d="M50.1314 39.1484C52.8721 38.5328 55.183 40.2781 55.183 42.2891C55.183 46.8219 48.9002 51.1063 48.9002 51.1063C48.9002 51.1063 58.6268 49.9469 58.6268 42.5047C58.6268 37.5828 53.8502 36.3531 50.1314 39.1484ZM45.5143 42.8047C45.5143 42.8047 48.5471 40.6438 49.3549 39.8328C41.9127 41.4125 24.9205 41.625 24.9205 40.2531C24.9205 38.9891 30.4002 37.6938 30.4002 37.6938C30.4002 37.6938 18.2549 37.5188 18.2549 41.1016C18.2549 44.8359 34.1533 45.1031 45.5143 42.8047Z" fill="#1565C0"/>
<path d="M43.6482 46.2047C36.6029 48.5469 23.6264 47.7984 27.4701 44.6531C25.5982 44.6531 22.8232 46.1578 22.8232 47.6047C22.8232 50.5063 36.8576 52.7469 47.2451 48.4985L43.6482 46.2047Z" fill="#1565C0"/>
<path d="M29.1968 51.1547C26.6405 51.1547 24.9858 52.8015 24.9858 54.0015C24.9858 57.7375 40.2358 58.114 46.278 54.3219L42.4374 51.7719C37.9233 53.7562 26.5843 54.0297 29.1968 51.1547Z" fill="#1565C0"/>
<path d="M56.6891 57.2375C56.6891 55.775 55.0406 55.086 54.45 54.7563C57.9312 63.1516 19.5797 62.5 19.5797 57.5438C19.5797 56.4172 22.4031 55.3141 25.0125 55.836L22.7937 54.525C17.5938 53.7094 14.0625 55.9953 14.0625 57.8391C14.0625 66.4375 56.6891 66.0235 56.6891 57.2375Z" fill="#1565C0"/>
<path d="M60.9376 60.3187C54.4595 66.7172 38.0329 69.0484 21.5142 65.0953C38.0329 72.1312 60.8595 68.1687 60.9376 60.3187Z" fill="#1565C0"/>
</svg>
