<svg width="75" height="75" viewBox="0 0 75 75" fill="none" xmlns="http://www.w3.org/2000/svg">
<rect width="75" height="75" fill="#A06A55"/>
<path d="M65.8812 37.5L68.75 34.4219L65.3359 31.9625L67.5484 28.3844L63.7203 26.6391L65.1922 22.6984L61.0969 21.7328L61.7719 17.5797L57.5672 17.4312L57.4187 13.2266L53.2656 13.9016L52.3 9.80625L48.3594 11.2781L46.6141 7.45L43.0359 9.6625L40.5781 6.25L37.5 9.11875L34.4219 6.25L31.9625 9.66406L28.3844 7.45156L26.6391 11.2797L22.6984 9.80781L21.7328 13.9031L17.5797 13.2281L17.4312 17.4328L13.2266 17.5812L13.9016 21.7344L9.80625 22.7L11.2781 26.6406L7.45 28.3859L9.6625 31.9641L6.25 34.4219L9.11875 37.5L6.25 40.5781L9.66406 43.0375L7.45156 46.6156L11.2797 48.3609L9.80781 52.3016L13.9031 53.2672L13.2281 57.4203L17.4328 57.5687L17.5812 61.7734L21.7344 61.0984L22.7 65.1937L26.6406 63.7219L28.3859 67.55L31.9641 65.3375L34.4219 68.75L37.5 65.8812L40.5781 68.75L43.0375 65.3359L46.6156 67.5484L48.3609 63.7203L52.3016 65.1922L53.2672 61.0969L57.4203 61.7719L57.5687 57.5672L61.7734 57.4187L61.0984 53.2656L65.1937 52.3L63.7219 48.3594L67.55 46.6141L65.3375 43.0359L68.75 40.5781L65.8812 37.5ZM37.5 10.9375C38.3625 10.9375 39.0625 11.6375 39.0625 12.5C39.0625 13.3625 38.3625 14.0625 37.5 14.0625C36.6375 14.0625 35.9375 13.3625 35.9375 12.5C35.9375 11.6375 36.6375 10.9375 37.5 10.9375ZM14.0625 28.125C14.925 28.125 15.625 28.825 15.625 29.6875C15.625 30.55 14.925 31.25 14.0625 31.25C13.2 31.25 12.5 30.55 12.5 29.6875C12.5 28.825 13.2 28.125 14.0625 28.125ZM13.7625 45.3125C12.9531 42.8531 12.5 40.2312 12.5 37.5C12.5 36.4 12.5953 35.325 12.7328 34.2625L16.9625 31.9969C17.8219 31.5375 18.25 30.5984 18.1156 29.6875H20.3125V45.3125H13.7625ZM23.4375 59.375C22.575 59.375 21.875 58.675 21.875 57.8125C21.875 56.95 22.575 56.25 23.4375 56.25C24.3 56.25 25 56.95 25 57.8125C25 58.675 24.3 59.375 23.4375 59.375ZM51.5625 59.375C50.7 59.375 50 58.675 50 57.8125C50 56.95 50.7 56.25 51.5625 56.25C52.425 56.25 53.125 56.95 53.125 57.8125C53.125 58.675 52.425 59.375 51.5625 59.375ZM55.3812 54.9547L50.5187 54.1781C49.2937 53.9828 48.1422 54.8172 47.9469 56.0422L47.2297 60.5375C44.2391 61.8 40.9516 62.5 37.5 62.5C33.975 62.5 30.625 61.7625 27.5844 60.4469L26.9125 56.2406C26.7172 55.0156 25.5656 54.1812 24.3406 54.3766L19.7594 55.1078C18.6797 54.0203 17.6984 52.8328 16.8328 51.5609H37.4234V45.3109H31.25V40.6234H35.7375C44.2906 40.6234 37.2797 51.5609 48.6234 51.5609H58.1672C57.3391 52.7766 56.4031 53.9078 55.3812 54.9547ZM31.6219 34.375V29.6875H39.7437C41.025 29.6875 42.0641 30.7266 42.0641 32.0078V32.0547C42.0641 33.3359 41.025 34.375 39.7437 34.375H31.6219ZM62.3859 39.7437H58.3062V41.6687C58.3062 43.8094 56.9719 45.3125 55.425 45.3125C51.4453 45.3125 52.5266 39.7859 47.6859 37.375C51.2984 36.7797 54.0672 33.5781 54.0672 29.6875C54.0672 25.3734 50.6734 21.875 46.4875 21.875H37.4219H24.6594H18C21.55 17.45 26.5672 14.2562 32.3219 13.0437L35.9109 16.6328C36.7875 17.5094 38.2094 17.5094 39.0859 16.6328L42.675 13.0437C49.925 14.5719 56.0187 19.2344 59.4625 25.5547L57.6391 28.9578C57.0531 30.0516 57.4656 31.4125 58.5578 31.9969L62.2172 33.9562C62.3859 35.1172 62.5 36.2937 62.5 37.5C62.5 38.2578 62.4531 39.0031 62.3859 39.7437ZM60.9375 31.25C60.075 31.25 59.375 30.55 59.375 29.6875C59.375 28.825 60.075 28.125 60.9375 28.125C61.8 28.125 62.5 28.825 62.5 29.6875C62.5 30.55 61.8 31.25 60.9375 31.25Z" fill="#37474F"/>
</svg>
