<svg width="100" height="100" viewBox="0 0 100 100" fill="none" xmlns="http://www.w3.org/2000/svg">
<path d="M10.8691 11.858H88.1311V88.1426H10.8691V11.858Z" fill="#A06A55"/>
<path d="M81.808 69.9485C81.242 66.4683 78.9436 63.5452 72.1354 60.8194C69.7704 59.7463 67.1337 58.9779 66.3481 57.2083C66.0691 56.1784 66.0321 55.5983 66.2086 54.9749C66.7153 52.9518 69.1612 52.3211 71.0998 52.9012C72.3484 53.3144 73.5303 54.2644 74.2431 55.7799C77.5772 53.6483 77.5704 53.6623 79.8984 52.1974C79.0461 50.8927 78.5912 50.2906 78.0333 49.7325C76.028 47.521 73.2957 46.3821 68.9261 46.4693L66.6499 46.7599C64.4687 47.3041 62.39 48.4345 61.1711 49.95C57.5136 54.0474 58.5567 61.2186 63.0072 64.1698C67.3917 67.419 73.8327 68.1581 74.6554 71.1965C75.4559 74.9161 71.8867 76.1202 68.3391 75.6924C65.7247 75.1556 64.2706 73.8436 62.6986 71.4579C59.8053 73.1111 59.8053 73.1111 56.8304 74.8003C57.5359 76.3231 58.2771 77.0123 59.4596 78.3316C65.0563 83.9367 79.0615 83.6612 81.5735 75.1775C81.6753 74.8862 82.3517 72.9436 81.808 69.9485ZM52.8712 46.9184H45.6445L45.6149 65.3654C45.6149 69.2885 45.8204 72.885 45.1742 73.9874C44.117 76.1556 41.3773 75.8868 40.1287 75.4664C38.8579 74.8497 38.2117 73.9728 37.4631 72.7333C37.2575 72.3774 37.1033 72.102 37.0514 72.0807L31.1758 75.6333C32.1528 77.6132 33.5921 79.3316 35.4356 80.448C38.1895 82.0799 41.8908 82.5802 45.7618 81.7027C48.2811 80.9782 50.4549 79.4773 51.593 77.1927C53.2384 74.1976 52.8853 70.5725 52.8705 66.5628C52.9076 60.0211 52.8712 53.4807 52.8712 46.9184Z" fill="#323330"/>
<path d="M12 87V12H87V87H12Z" fill="#A06A55"/>
<path d="M61.5376 68.6396C62.9793 70.9812 64.5459 73.225 67.8647 73.225C70.6522 73.225 72.1147 71.8396 72.1147 69.9229C72.1147 67.6291 70.6022 66.8146 67.5355 65.4791L65.8543 64.7625C61.0022 62.7041 57.7751 60.125 57.7751 54.6771C57.7751 49.6562 61.6188 45.8354 67.6251 45.8354C71.9022 45.8354 74.9751 47.3166 77.1918 51.1958L71.9543 54.5437C70.8022 52.4854 69.5563 51.675 67.6251 51.675C65.6543 51.675 64.4063 52.9187 64.4063 54.5437C64.4063 56.5521 65.6563 57.3646 68.5418 58.6083L70.223 59.325C75.9418 61.7604 79.1668 64.2479 79.1668 69.8396C79.1668 75.8646 74.4084 79.1666 68.0209 79.1666C61.773 79.1666 58.2251 76.0312 56.2501 72.15L61.5376 68.6396ZM37.4001 68.8104C38.4543 70.6979 40.0563 72.15 42.3605 72.15C44.5647 72.15 45.8334 71.2791 45.8334 67.8937V45.8333H52.7772V68.9604C52.7772 75.975 48.7084 79.1666 42.7668 79.1666C37.398 79.1666 33.523 75.5291 31.9438 72.15L37.4001 68.8104Z" fill="#000001"/>
</svg>
