<svg width="1154" height="302" viewBox="0 0 1154 302" fill="none" xmlns="http://www.w3.org/2000/svg">
<path d="M14.4062 28.4275V47.1775H0.34375V0.30249H33.1562V28.4275H14.4062ZM14.4062 9.67749V19.0525H19.0938V9.67749H14.4062ZM51.9062 0.30249V47.1775H37.8438V0.30249H51.9062ZM75.3438 23.74V19.0525H70.6562V23.74H75.3438ZM56.5938 47.1775V9.67749H89.4062V33.115H70.6562V37.8025H89.4062V47.1775H56.5938ZM108.156 33.115V37.8025H112.844V33.115H108.156ZM126.906 9.67749V47.1775H94.0938V23.74H112.844V19.0525H94.0938V9.67749H126.906ZM131.594 47.1775V37.8025H150.344V33.115H131.594V9.67749H164.406V19.0525H145.656V23.74H164.406V47.1775H131.594ZM187.844 23.74V19.0525H183.156V23.74H187.844ZM169.094 47.1775V9.67749H201.906V33.115H183.156V37.8025H201.906V47.1775H169.094ZM258.156 9.67749V19.0525H239.406V37.8025H258.156V47.1775H225.344V9.67749H258.156ZM276.906 19.0525V37.8025H281.594V19.0525H276.906ZM295.656 9.67749V47.1775H262.844V9.67749H295.656ZM333.156 9.67749V47.1775H319.094V19.0525H314.406V47.1775H300.344V9.67749H333.156ZM351.906 37.8025H361.281V47.1775H337.844V0.30249H351.906V9.67749H361.281V19.0525H351.906V37.8025ZM380.031 33.115V37.8025H384.719V33.115H380.031ZM398.781 9.67749V47.1775H365.969V23.74H384.719V19.0525H365.969V9.67749H398.781ZM436.281 9.67749V19.0525H417.531V37.8025H436.281V47.1775H403.469V9.67749H436.281ZM455.031 37.8025H464.406V47.1775H440.969V0.30249H455.031V9.67749H464.406V19.0525H455.031V37.8025ZM539.406 9.67749V47.1775H525.344V19.0525H520.656V47.1775H506.594V19.0525H501.906V47.1775H487.844V9.67749H511.281V14.365H515.969V9.67749H539.406ZM562.844 23.74V19.0525H558.156V23.74H562.844ZM544.094 47.1775V9.67749H576.906V33.115H558.156V37.8025H576.906V47.1775H544.094ZM614.406 9.67749V37.8025H619.094V9.67749H633.156V33.115H628.469V42.49H623.781V47.1775H609.719V42.49H605.031V33.115H600.344V9.67749H614.406ZM637.844 46.99V14.1775H651.906V46.99H637.844ZM637.844 9.67749V0.30249H651.906V9.67749H637.844ZM670.656 33.115V37.8025H675.344V33.115H670.656ZM689.406 9.67749V47.1775H656.594V23.74H675.344V19.0525H656.594V9.67749H689.406ZM914.406 14.365H923.781V23.74H914.406V47.1775H900.344V0.30249H923.781V9.67749H914.406V14.365ZM942.531 19.0525V37.8025H947.219V19.0525H942.531ZM961.281 9.67749V47.1775H928.469V9.67749H961.281ZM994.094 9.67749V19.0525H980.031V47.1775H965.969V9.67749H994.094ZM1031.59 33.115V37.8025H1036.28V33.115H1031.59ZM1050.34 9.67749V47.1775H1017.53V23.74H1036.28V19.0525H1017.53V9.67749H1050.34ZM1087.84 9.67749V47.1775H1073.78V19.0525H1069.09V47.1775H1055.03V9.67749H1087.84ZM1125.34 9.67749V56.5525H1092.53V47.1775H1111.28V42.49H1092.53V9.67749H1106.59V33.115H1111.28V9.67749H1125.34ZM14.4062 67.0525V85.8025H19.0938V67.0525H14.4062ZM14.4062 48.3025V57.6775H33.1562V95.1775H0.34375V48.3025H14.4062ZM37.8438 95.1775V57.6775H51.9062V85.8025H56.5938V57.6775H70.6562V95.1775H37.8438ZM75.3438 95.1775V85.8025H94.0938V81.115H75.3438V57.6775H108.156V67.0525H89.4062V71.74H108.156V95.1775H75.3438ZM112.844 94.99V62.1775H126.906V94.99H112.844ZM112.844 57.6775V48.3025H126.906V57.6775H112.844ZM164.406 57.6775V95.1775H150.344V67.0525H145.656V95.1775H131.594V57.6775H164.406ZM187.844 71.74V67.0525H183.156V71.74H187.844ZM169.094 95.1775V57.6775H201.906V81.115H183.156V85.8025H201.906V95.1775H169.094ZM206.594 95.1775V85.8025H225.344V81.115H206.594V57.6775H239.406V67.0525H220.656V71.74H239.406V95.1775H206.594ZM244.094 95.1775V85.8025H262.844V81.115H244.094V57.6775H276.906V67.0525H258.156V71.74H276.906V95.1775H244.094ZM319.094 71.74V67.0525H314.406V71.74H319.094ZM300.344 95.1775V57.6775H333.156V81.115H314.406V85.8025H333.156V95.1775H300.344ZM370.656 57.6775V95.1775H356.594V67.0525H351.906V95.1775H337.844V57.6775H370.656ZM394.094 85.8025V67.0525H389.406V85.8025H394.094ZM394.094 109.24V95.1775H375.344V57.6775H408.156V109.24H394.094ZM412.844 95.1775V57.6775H426.906V85.8025H431.594V57.6775H445.656V95.1775H412.844ZM450.344 94.99V62.1775H464.406V94.99H450.344ZM450.344 57.6775V48.3025H464.406V57.6775H450.344ZM497.219 57.6775V67.0525H483.156V95.1775H469.094V57.6775H497.219ZM501.906 94.99V62.1775H515.969V94.99H501.906ZM501.906 57.6775V48.3025H515.969V57.6775H501.906ZM539.406 71.74V67.0525H534.719V71.74H539.406ZM520.656 95.1775V57.6775H553.469V81.115H534.719V85.8025H553.469V95.1775H520.656ZM558.156 95.1775V85.8025H576.906V81.115H558.156V57.6775H590.969V67.0525H572.219V71.74H590.969V95.1775H558.156ZM609.719 48.3025V81.115H595.656V48.3025H609.719ZM609.719 85.615V94.99H595.656V85.615H609.719ZM14.4062 144.302V163.052H19.0938V144.302H33.1562V172.427H23.7812V191.177H9.71875V172.427H0.34375V144.302H14.4062ZM51.9062 163.052V181.802H56.5938V163.052H51.9062ZM70.6562 153.677V191.177H37.8438V153.677H70.6562ZM75.3438 191.177V153.677H89.4062V181.802H94.0938V153.677H108.156V191.177H75.3438ZM164.406 153.677V163.052H145.656V181.802H164.406V191.177H131.594V153.677H164.406ZM183.156 177.115V181.802H187.844V177.115H183.156ZM201.906 153.677V191.177H169.094V167.74H187.844V163.052H169.094V153.677H201.906ZM239.406 153.677V191.177H225.344V163.052H220.656V191.177H206.594V153.677H239.406ZM276.906 177.115V181.802H281.594V177.115H276.906ZM295.656 153.677V191.177H262.844V167.74H281.594V163.052H262.844V153.677H295.656ZM314.406 144.302V191.177H300.344V144.302H314.406ZM319.094 191.177V181.802H337.844V177.115H319.094V153.677H351.906V163.052H333.156V167.74H351.906V191.177H319.094ZM370.656 163.052V181.802H375.344V163.052H370.656ZM389.406 153.677V191.177H356.594V153.677H389.406ZM436.281 158.365V200.552H412.844V191.177H422.219V158.365H436.281ZM422.219 153.677V144.302H436.281V153.677H422.219ZM455.031 163.052V181.802H459.719V163.052H455.031ZM473.781 153.677V191.177H440.969V153.677H473.781ZM478.469 190.99V158.177H492.531V190.99H478.469ZM478.469 153.677V144.302H492.531V153.677H478.469ZM530.031 153.677V191.177H515.969V163.052H511.281V191.177H497.219V153.677H530.031ZM567.531 181.802H576.906V191.177H553.469V144.302H567.531V153.677H576.906V163.052H567.531V181.802ZM581.594 191.177V144.302H595.656V153.677H614.406V191.177H600.344V163.052H595.656V191.177H581.594ZM637.844 167.74V163.052H633.156V167.74H637.844ZM619.094 191.177V153.677H651.906V177.115H633.156V181.802H651.906V191.177H619.094ZM689.406 172.427V191.177H675.344V144.302H708.156V172.427H689.406ZM689.406 153.677V163.052H694.094V153.677H689.406ZM726.906 153.677V181.802H731.594V153.677H745.656V177.115H740.969V186.49H736.281V191.177H722.219V186.49H717.531V177.115H712.844V153.677H726.906ZM764.406 172.427V191.177H750.344V144.302H783.156V172.427H764.406ZM764.406 153.677V163.052H769.094V153.677H764.406ZM801.906 144.302V163.052H806.594V144.302H820.656V191.177H806.594V172.427H801.906V191.177H787.844V144.302H801.906ZM825.344 191.177V153.677H839.406V181.802H844.094V153.677H858.156V191.177H825.344ZM876.906 163.052V181.802H881.594V163.052H876.906ZM876.906 144.302V153.677H895.656V191.177H862.844V144.302H876.906ZM0.34375 286.99V254.177H14.4062V286.99H0.34375ZM0.34375 249.677V240.302H14.4062V249.677H0.34375ZM51.9062 249.677V287.177H37.8438V259.052H33.1562V287.177H19.0938V249.677H51.9062ZM89.4062 259.052V277.802H94.0938V259.052H89.4062ZM108.156 249.677V287.177H75.3438V249.677H108.156ZM140.969 249.677V259.052H126.906V287.177H112.844V249.677H140.969ZM159.719 259.052V277.802H164.406V259.052H159.719ZM178.469 240.302V287.177H145.656V249.677H164.406V240.302H178.469ZM201.906 263.74V259.052H197.219V263.74H201.906ZM183.156 287.177V249.677H215.969V273.115H197.219V277.802H215.969V287.177H183.156ZM248.781 249.677V259.052H234.719V287.177H220.656V249.677H248.781ZM286.281 277.802H295.656V287.177H272.219V240.302H286.281V249.677H295.656V259.052H286.281V277.802ZM314.406 259.052V277.802H319.094V259.052H314.406ZM333.156 249.677V287.177H300.344V249.677H333.156ZM375.344 273.115V259.052H370.656V273.115H375.344ZM356.594 296.552V287.177H375.344V282.49H356.594V249.677H389.406V296.552H356.594ZM412.844 263.74V259.052H408.156V263.74H412.844ZM394.094 287.177V249.677H426.906V273.115H408.156V277.802H426.906V287.177H394.094ZM445.656 277.802H455.031V287.177H431.594V240.302H445.656V249.677H455.031V259.052H445.656V277.802ZM478.469 287.177V249.677H492.531V277.802H497.219V249.677H511.281V287.177H478.469ZM534.719 277.802V259.052H530.031V277.802H534.719ZM515.969 301.24V249.677H548.781V287.177H530.031V301.24H515.969ZM567.531 259.052V277.802H572.219V259.052H567.531ZM586.281 240.302V287.177H553.469V249.677H572.219V240.302H586.281ZM605.031 273.115V277.802H609.719V273.115H605.031ZM623.781 249.677V287.177H590.969V263.74H609.719V259.052H590.969V249.677H623.781ZM642.531 277.802H651.906V287.177H628.469V240.302H642.531V249.677H651.906V259.052H642.531V277.802ZM675.344 263.74V259.052H670.656V263.74H675.344ZM656.594 287.177V249.677H689.406V273.115H670.656V277.802H689.406V287.177H656.594ZM694.094 287.177V277.802H712.844V273.115H694.094V249.677H726.906V259.052H708.156V263.74H726.906V287.177H694.094ZM764.406 254.365H773.781V263.74H764.406V287.177H750.344V240.302H773.781V249.677H764.406V254.365ZM806.594 249.677V259.052H792.531V287.177H778.469V249.677H806.594ZM825.344 259.052V277.802H830.031V259.052H825.344ZM844.094 249.677V287.177H811.281V249.677H844.094ZM900.344 249.677V287.177H886.281V259.052H881.594V287.177H867.531V259.052H862.844V287.177H848.781V249.677H872.219V254.365H876.906V249.677H900.344ZM975.344 249.677V287.177H961.281V259.052H956.594V287.177H942.531V259.052H937.844V287.177H923.781V249.677H947.219V254.365H951.906V249.677H975.344ZM1012.84 249.677V296.552H980.031V287.177H998.781V282.49H980.031V249.677H994.094V273.115H998.781V249.677H1012.84ZM1017.53 287.177V277.802H1036.28V273.115H1017.53V249.677H1050.34V259.052H1031.59V263.74H1050.34V287.177H1017.53ZM1073.78 263.74V259.052H1069.09V263.74H1073.78ZM1055.03 287.177V249.677H1087.84V273.115H1069.09V277.802H1087.84V287.177H1055.03ZM1106.59 240.302V287.177H1092.53V240.302H1106.59ZM1125.34 254.365H1134.72V263.74H1125.34V287.177H1111.28V240.302H1134.72V249.677H1125.34V254.365ZM1153.47 277.802V287.177H1139.41V277.802H1153.47Z" fill="#3A294B"/>
<path d="M731.594 23.74V19.0525H726.906V23.74H731.594ZM712.844 47.1775V9.67749H745.656V33.115H726.906V37.8025H745.656V47.1775H712.844ZM801.906 9.67749V47.1775H787.844V19.0525H783.156V47.1775H769.094V19.0525H764.406V47.1775H750.344V9.67749H773.781V14.365H778.469V9.67749H801.906ZM820.656 33.115V37.8025H825.344V33.115H820.656ZM839.406 9.67749V47.1775H806.594V23.74H825.344V19.0525H806.594V9.67749H839.406ZM844.094 46.99V14.1775H858.156V46.99H844.094ZM844.094 9.67749V0.30249H858.156V9.67749H844.094ZM876.906 0.30249V47.1775H862.844V0.30249H876.906ZM933.156 153.677V181.802H937.844V153.677H933.156ZM947.219 144.302V148.99H951.906V186.49H947.219V191.177H919.094V144.302H947.219ZM956.594 190.99V158.177H970.656V190.99H956.594ZM956.594 153.677V144.302H970.656V153.677H956.594ZM975.344 191.177V181.802H994.094V177.115H975.344V153.677H1008.16V163.052H989.406V167.74H1008.16V191.177H975.344ZM1045.66 153.677V163.052H1026.91V181.802H1045.66V191.177H1012.84V153.677H1045.66ZM1064.41 163.052V181.802H1069.09V163.052H1064.41ZM1083.16 153.677V191.177H1050.34V153.677H1083.16ZM1115.97 153.677V163.052H1101.91V191.177H1087.84V153.677H1115.97ZM1134.72 163.052V181.802H1139.41V163.052H1134.72ZM1153.47 144.302V191.177H1120.66V153.677H1139.41V144.302H1153.47ZM0.34375 239.177V229.802H19.0938V220.427H0.34375V192.302H33.1562V201.677H14.4062V211.052H33.1562V239.177H0.34375ZM56.5938 215.74V211.052H51.9062V215.74H56.5938ZM37.8438 239.177V201.677H70.6562V225.115H51.9062V229.802H70.6562V239.177H37.8438ZM103.469 201.677V211.052H89.4062V239.177H75.3438V201.677H103.469ZM122.219 201.677V229.802H126.906V201.677H140.969V225.115H136.281V234.49H131.594V239.177H117.531V234.49H112.844V225.115H108.156V201.677H122.219ZM164.406 215.74V211.052H159.719V215.74H164.406ZM145.656 239.177V201.677H178.469V225.115H159.719V229.802H178.469V239.177H145.656ZM211.281 201.677V211.052H197.219V239.177H183.156V201.677H211.281Z" fill="#B90531"/>
</svg>
