<svg width="76" height="75" viewBox="0 0 76 75" fill="none" xmlns="http://www.w3.org/2000/svg">
<rect width="75" height="75" transform="translate(0.5)" fill="#A06A55"/>
<path d="M66.3812 37.5L69.25 34.4219L65.8359 31.9625L68.0484 28.3844L64.2203 26.6391L65.6922 22.6984L61.5969 21.7328L62.2719 17.5797L58.0672 17.4312L57.9187 13.2266L53.7656 13.9016L52.8 9.80625L48.8594 11.2781L47.1141 7.45L43.5359 9.6625L41.0781 6.25L38 9.11875L34.9219 6.25L32.4625 9.66406L28.8844 7.45156L27.1391 11.2797L23.1984 9.80781L22.2328 13.9031L18.0797 13.2281L17.9312 17.4328L13.7266 17.5812L14.4016 21.7344L10.3062 22.7L11.7781 26.6406L7.95 28.3859L10.1625 31.9641L6.75 34.4219L9.61875 37.5L6.75 40.5781L10.1641 43.0375L7.95156 46.6156L11.7797 48.3609L10.3078 52.3016L14.4031 53.2672L13.7281 57.4203L17.9328 57.5687L18.0812 61.7734L22.2344 61.0984L23.2 65.1937L27.1406 63.7219L28.8859 67.55L32.4641 65.3375L34.9219 68.75L38 65.8812L41.0781 68.75L43.5375 65.3359L47.1156 67.5484L48.8609 63.7203L52.8016 65.1922L53.7672 61.0969L57.9203 61.7719L58.0687 57.5672L62.2734 57.4187L61.5984 53.2656L65.6937 52.3L64.2219 48.3594L68.05 46.6141L65.8375 43.0359L69.25 40.5781L66.3812 37.5ZM38 10.9375C38.8625 10.9375 39.5625 11.6375 39.5625 12.5C39.5625 13.3625 38.8625 14.0625 38 14.0625C37.1375 14.0625 36.4375 13.3625 36.4375 12.5C36.4375 11.6375 37.1375 10.9375 38 10.9375ZM14.5625 28.125C15.425 28.125 16.125 28.825 16.125 29.6875C16.125 30.55 15.425 31.25 14.5625 31.25C13.7 31.25 13 30.55 13 29.6875C13 28.825 13.7 28.125 14.5625 28.125ZM14.2625 45.3125C13.4531 42.8531 13 40.2312 13 37.5C13 36.4 13.0953 35.325 13.2328 34.2625L17.4625 31.9969C18.3219 31.5375 18.75 30.5984 18.6156 29.6875H20.8125V45.3125H14.2625ZM23.9375 59.375C23.075 59.375 22.375 58.675 22.375 57.8125C22.375 56.95 23.075 56.25 23.9375 56.25C24.8 56.25 25.5 56.95 25.5 57.8125C25.5 58.675 24.8 59.375 23.9375 59.375ZM52.0625 59.375C51.2 59.375 50.5 58.675 50.5 57.8125C50.5 56.95 51.2 56.25 52.0625 56.25C52.925 56.25 53.625 56.95 53.625 57.8125C53.625 58.675 52.925 59.375 52.0625 59.375ZM55.8812 54.9547L51.0187 54.1781C49.7937 53.9828 48.6422 54.8172 48.4469 56.0422L47.7297 60.5375C44.7391 61.8 41.4516 62.5 38 62.5C34.475 62.5 31.125 61.7625 28.0844 60.4469L27.4125 56.2406C27.2172 55.0156 26.0656 54.1812 24.8406 54.3766L20.2594 55.1078C19.1797 54.0203 18.1984 52.8328 17.3328 51.5609H37.9234V45.3109H31.75V40.6234H36.2375C44.7906 40.6234 37.7797 51.5609 49.1234 51.5609H58.6672C57.8391 52.7766 56.9031 53.9078 55.8812 54.9547ZM32.1219 34.375V29.6875H40.2437C41.525 29.6875 42.5641 30.7266 42.5641 32.0078V32.0547C42.5641 33.3359 41.525 34.375 40.2437 34.375H32.1219ZM62.8859 39.7437H58.8062V41.6687C58.8062 43.8094 57.4719 45.3125 55.925 45.3125C51.9453 45.3125 53.0266 39.7859 48.1859 37.375C51.7984 36.7797 54.5672 33.5781 54.5672 29.6875C54.5672 25.3734 51.1734 21.875 46.9875 21.875H37.9219H25.1594H18.5C22.05 17.45 27.0672 14.2562 32.8219 13.0437L36.4109 16.6328C37.2875 17.5094 38.7094 17.5094 39.5859 16.6328L43.175 13.0437C50.425 14.5719 56.5187 19.2344 59.9625 25.5547L58.1391 28.9578C57.5531 30.0516 57.9656 31.4125 59.0578 31.9969L62.7172 33.9562C62.8859 35.1172 63 36.2937 63 37.5C63 38.2578 62.9531 39.0031 62.8859 39.7437ZM61.4375 31.25C60.575 31.25 59.875 30.55 59.875 29.6875C59.875 28.825 60.575 28.125 61.4375 28.125C62.3 28.125 63 28.825 63 29.6875C63 30.55 62.3 31.25 61.4375 31.25Z" fill="#37474F"/>
</svg>
