<svg width="76" height="75" viewBox="0 0 76 75" fill="none" xmlns="http://www.w3.org/2000/svg">
<rect width="75" height="75" transform="translate(0.5)" fill="#A06A55"/>
<path d="M37.4529 38.9031C35.8935 36.389 34.7623 34.3047 33.1951 30.3797C30.5451 23.75 49.3123 17.7593 41.7029 6.24841C45.0013 14.2 29.8638 19.1156 28.4576 25.7375C27.1716 31.8281 37.4451 38.9031 37.4529 38.9031Z" fill="#F44336"/>
<path d="M37.8094 26.9844C37.5094 30.9156 41.2922 33.0109 41.4016 35.8828C41.4891 38.2203 39.1407 40.1687 39.1407 40.1687C39.1407 40.1687 43.4032 39.3312 44.7329 35.7656C46.2094 31.8062 41.8672 29.0953 42.3141 25.925C42.7313 22.8968 51.7375 17.264 51.7375 17.264C51.7375 17.264 38.486 18.1422 37.8094 26.9844Z" fill="#F44336"/>
<path d="M50.6314 39.1484C53.3721 38.5328 55.683 40.2781 55.683 42.2891C55.683 46.8219 49.4002 51.1063 49.4002 51.1063C49.4002 51.1063 59.1268 49.9469 59.1268 42.5047C59.1268 37.5828 54.3502 36.3531 50.6314 39.1484ZM46.0143 42.8047C46.0143 42.8047 49.0471 40.6438 49.8549 39.8328C42.4127 41.4125 25.4205 41.625 25.4205 40.2531C25.4205 38.9891 30.9002 37.6938 30.9002 37.6938C30.9002 37.6938 18.7549 37.5188 18.7549 41.1016C18.7549 44.8359 34.6533 45.1031 46.0143 42.8047Z" fill="#1565C0"/>
<path d="M44.1482 46.2047C37.1029 48.5469 24.1264 47.7984 27.9701 44.6531C26.0982 44.6531 23.3232 46.1578 23.3232 47.6047C23.3232 50.5063 37.3576 52.7469 47.7451 48.4985L44.1482 46.2047Z" fill="#1565C0"/>
<path d="M29.6968 51.1547C27.1405 51.1547 25.4858 52.8015 25.4858 54.0015C25.4858 57.7375 40.7358 58.114 46.778 54.3219L42.9374 51.7719C38.4233 53.7562 27.0843 54.0297 29.6968 51.1547Z" fill="#1565C0"/>
<path d="M57.1891 57.2375C57.1891 55.775 55.5406 55.086 54.95 54.7563C58.4312 63.1516 20.0797 62.5 20.0797 57.5438C20.0797 56.4172 22.9031 55.3141 25.5125 55.836L23.2937 54.525C18.0938 53.7094 14.5625 55.9953 14.5625 57.8391C14.5625 66.4375 57.1891 66.0235 57.1891 57.2375Z" fill="#1565C0"/>
<path d="M61.4376 60.3187C54.9595 66.7172 38.5329 69.0484 22.0142 65.0953C38.5329 72.1312 61.3595 68.1687 61.4376 60.3187Z" fill="#1565C0"/>
</svg>
