<svg width="76" height="75" viewBox="0 0 76 75" fill="none" xmlns="http://www.w3.org/2000/svg">
<rect width="75" height="75" transform="translate(0.5)" fill="#A06A55"/>
<path d="M38 9.375L28.6094 19.2969L19.2031 29.2031L9.875 39.0625V9.375H38Z" fill="#0D91D6"/>
<path d="M38 9.375H37.9375L28.5781 19.2656L19.1875 29.1875L9.875 39.0156V39.0625V39.2031V65.625L23.4531 52.0469L33.1094 42.3906L42.7812 32.7188L52.4531 23.0469L66.125 9.375H38Z" fill="#F88909"/>
<path d="M23.4531 52.0469L9.875 65.625V39.2031L23.4531 52.0469Z" fill="#C757BC"/>
<path d="M33.1094 42.3906L23.4531 52.0469L9.875 39.2031V39.0625L19.2031 29.2031L33.1094 42.3906Z" fill="#D3638F"/>
<path d="M42.7812 32.7187L33.1094 42.3906L19.2031 29.2031L28.6094 19.2969L42.7812 32.7187Z" fill="#E07063"/>
<path d="M52.4531 23.0469L42.7812 32.7188L28.6094 19.2969L38 9.375L52.4531 23.0469Z" fill="#EC7D36"/>
<path d="M66.125 9.375L52.4531 23.0469L38 9.375H66.125Z" fill="#F88909"/>
<path d="M18.4844 29.9219L12.9844 35.75L9.875 32.8125V21.7812L18.4844 29.9219Z" fill="#0095D5"/>
<path d="M23.9844 24.0938L18.4844 29.9219L9.875 21.7812V10.7344L23.9844 24.0938Z" fill="#2B88DA"/>
<path d="M29.5 18.2812L23.9844 24.0938L9.875 10.7344V9.375H20.0781L29.5 18.2812Z" fill="#557BDE"/>
<path d="M35 12.4531L29.5 18.2812L20.0781 9.375H38L35 12.4531Z" fill="#806EE3"/>
<path d="M36.4375 39.0625L9.875 65.625H15.1094H27.875H63L36.4375 39.0625Z" fill="#0095D5"/>
<path d="M40.625 65.625H27.875L18.875 56.6406L25.25 50.2656L40.625 65.625Z" fill="#2B88DA"/>
<path d="M53.4062 65.625H40.625L25.25 50.2656L31.625 43.8906L53.4062 65.625Z" fill="#557BDE"/>
<path d="M66.125 65.625H53.4062L31.625 43.8906L38 37.5L66.125 65.625Z" fill="#806EE3"/>
</svg>
