<svg width="101" height="100" viewBox="0 0 101 100" fill="none" xmlns="http://www.w3.org/2000/svg">
<path d="M11.3691 11.858H88.6311V88.1426H11.3691V11.858Z" fill="#A06A55"/>
<path d="M82.308 69.9485C81.742 66.4683 79.4436 63.5452 72.6354 60.8194C70.2704 59.7463 67.6337 58.9779 66.8481 57.2083C66.5691 56.1784 66.5321 55.5983 66.7086 54.9749C67.2153 52.9518 69.6612 52.3211 71.5998 52.9012C72.8484 53.3144 74.0303 54.2644 74.7431 55.7799C78.0772 53.6483 78.0704 53.6623 80.3984 52.1974C79.5461 50.8927 79.0912 50.2906 78.5333 49.7325C76.528 47.521 73.7957 46.3821 69.4261 46.4693L67.1499 46.7599C64.9687 47.3041 62.89 48.4345 61.6711 49.95C58.0136 54.0474 59.0567 61.2186 63.5072 64.1698C67.8917 67.419 74.3327 68.1581 75.1554 71.1965C75.9559 74.9161 72.3867 76.1202 68.8391 75.6924C66.2247 75.1556 64.7706 73.8436 63.1986 71.4579C60.3053 73.1111 60.3053 73.1111 57.3304 74.8003C58.0359 76.3231 58.7771 77.0123 59.9596 78.3316C65.5563 83.9367 79.5615 83.6612 82.0735 75.1775C82.1753 74.8862 82.8517 72.9436 82.308 69.9485ZM53.3712 46.9184H46.1445L46.1149 65.3654C46.1149 69.2885 46.3204 72.885 45.6742 73.9874C44.617 76.1556 41.8773 75.8868 40.6287 75.4664C39.3579 74.8497 38.7117 73.9728 37.9631 72.7333C37.7575 72.3774 37.6033 72.102 37.5514 72.0807L31.6758 75.6333C32.6528 77.6132 34.0921 79.3316 35.9356 80.448C38.6895 82.0799 42.3908 82.5802 46.2618 81.7027C48.7811 80.9782 50.9549 79.4773 52.093 77.1927C53.7384 74.1976 53.3853 70.5725 53.3705 66.5628C53.4076 60.0211 53.3712 53.4807 53.3712 46.9184Z" fill="#323330"/>
<path d="M12.5 87V12H87.5V87H12.5Z" fill="#A06A55"/>
<path d="M62.0376 68.6396C63.4793 70.9812 65.0459 73.225 68.3647 73.225C71.1522 73.225 72.6147 71.8396 72.6147 69.9229C72.6147 67.6291 71.1022 66.8146 68.0355 65.4791L66.3543 64.7625C61.5022 62.7041 58.2751 60.125 58.2751 54.6771C58.2751 49.6562 62.1188 45.8354 68.1251 45.8354C72.4022 45.8354 75.4751 47.3166 77.6918 51.1958L72.4543 54.5437C71.3022 52.4854 70.0563 51.675 68.1251 51.675C66.1543 51.675 64.9063 52.9187 64.9063 54.5437C64.9063 56.5521 66.1563 57.3646 69.0418 58.6083L70.723 59.325C76.4418 61.7604 79.6668 64.2479 79.6668 69.8396C79.6668 75.8646 74.9084 79.1666 68.5209 79.1666C62.273 79.1666 58.7251 76.0312 56.7501 72.15L62.0376 68.6396ZM37.9001 68.8104C38.9543 70.6979 40.5563 72.15 42.8605 72.15C45.0647 72.15 46.3334 71.2791 46.3334 67.8937V45.8333H53.2772V68.9604C53.2772 75.975 49.2084 79.1666 43.2668 79.1666C37.898 79.1666 34.023 75.5291 32.4438 72.15L37.9001 68.8104Z" fill="#000001"/>
</svg>
