<svg width="1204" height="389" viewBox="0 0 1204 389" fill="none" xmlns="http://www.w3.org/2000/svg">
<path d="M38.708 20.891C38.708 23.4936 38.1107 25.883 36.916 28.059C35.7213 30.1923 33.8867 31.9203 31.412 33.243C28.9373 34.5656 25.8653 35.227 22.196 35.227H15.412V51.355H4.468V6.42698H22.196C25.78 6.42698 28.8093 7.04565 31.284 8.28298C33.7587 9.52031 35.6147 11.227 36.852 13.403C38.0893 15.579 38.708 18.075 38.708 20.891ZM21.364 26.523C23.4547 26.523 25.012 26.0323 26.036 25.051C27.06 24.0696 27.572 22.683 27.572 20.891C27.572 19.099 27.06 17.7123 26.036 16.731C25.012 15.7496 23.4547 15.259 21.364 15.259H15.412V26.523H21.364ZM55.3495 3.99498V51.355H44.4055V3.99498H55.3495ZM96.9445 32.923C96.9445 33.947 96.8805 35.0136 96.7525 36.123H71.9845C72.1552 38.3416 72.8592 40.0483 74.0965 41.243C75.3765 42.395 76.9338 42.971 78.7685 42.971C81.4992 42.971 83.3978 41.819 84.4645 39.515H96.1125C95.5152 41.8616 94.4272 43.9736 92.8485 45.851C91.3125 47.7283 89.3712 49.2003 87.0245 50.267C84.6778 51.3336 82.0538 51.867 79.1525 51.867C75.6538 51.867 72.5392 51.1203 69.8085 49.627C67.0778 48.1336 64.9445 46.0003 63.4085 43.227C61.8725 40.4536 61.1045 37.211 61.1045 33.499C61.1045 29.787 61.8512 26.5443 63.3445 23.771C64.8805 20.9976 67.0138 18.8643 69.7445 17.371C72.4752 15.8776 75.6112 15.131 79.1525 15.131C82.6085 15.131 85.6805 15.8563 88.3685 17.307C91.0565 18.7576 93.1472 20.827 94.6405 23.515C96.1765 26.203 96.9445 29.339 96.9445 32.923ZM85.7445 30.043C85.7445 28.1656 85.1045 26.6723 83.8245 25.563C82.5445 24.4536 80.9445 23.899 79.0245 23.899C77.1898 23.899 75.6325 24.4323 74.3525 25.499C73.1152 26.5656 72.3472 28.0803 72.0485 30.043H85.7445ZM100.542 33.435C100.542 29.7656 101.225 26.5443 102.59 23.771C103.998 20.9976 105.897 18.8643 108.286 17.371C110.675 15.8776 113.342 15.131 116.286 15.131C118.803 15.131 121.001 15.643 122.878 16.667C124.798 17.691 126.27 19.035 127.294 20.699V15.643H138.238V51.355H127.294V46.299C126.227 47.963 124.734 49.307 122.814 50.331C120.937 51.355 118.739 51.867 116.222 51.867C113.321 51.867 110.675 51.1203 108.286 49.627C105.897 48.091 103.998 45.9363 102.59 43.163C101.225 40.347 100.542 37.1043 100.542 33.435ZM127.294 33.499C127.294 30.7683 126.526 28.6136 124.99 27.035C123.497 25.4563 121.662 24.667 119.486 24.667C117.31 24.667 115.454 25.4563 113.918 27.035C112.425 28.571 111.678 30.7043 111.678 33.435C111.678 36.1656 112.425 38.3416 113.918 39.963C115.454 41.5416 117.31 42.331 119.486 42.331C121.662 42.331 123.497 41.5416 124.99 39.963C126.526 38.3843 127.294 36.2296 127.294 33.499ZM160.684 51.867C157.569 51.867 154.796 51.3336 152.364 50.267C149.932 49.2003 148.012 47.7496 146.604 45.915C145.196 44.0376 144.406 41.947 144.236 39.643H155.052C155.18 40.8803 155.756 41.883 156.78 42.651C157.804 43.419 159.062 43.803 160.556 43.803C161.921 43.803 162.966 43.547 163.692 43.035C164.46 42.4803 164.844 41.7763 164.844 40.923C164.844 39.899 164.31 39.1523 163.244 38.683C162.177 38.171 160.449 37.6163 158.06 37.019C155.5 36.4216 153.366 35.803 151.66 35.163C149.953 34.4803 148.481 33.435 147.244 32.027C146.006 30.5763 145.388 28.635 145.388 26.203C145.388 24.155 145.942 22.299 147.052 20.635C148.204 18.9283 149.868 17.5843 152.044 16.603C154.262 15.6216 156.886 15.131 159.916 15.131C164.396 15.131 167.916 16.2403 170.476 18.459C173.078 20.6776 174.572 23.6216 174.956 27.291H164.844C164.673 26.0536 164.118 25.0723 163.18 24.347C162.284 23.6216 161.089 23.259 159.596 23.259C158.316 23.259 157.334 23.515 156.652 24.027C155.969 24.4963 155.628 25.1576 155.628 26.011C155.628 27.035 156.161 27.803 157.228 28.315C158.337 28.827 160.044 29.339 162.348 29.851C164.993 30.5336 167.148 31.2163 168.812 31.899C170.476 32.539 171.926 33.6056 173.164 35.099C174.444 36.5496 175.105 38.5123 175.148 40.987C175.148 43.0776 174.55 44.955 173.356 46.619C172.204 48.2403 170.518 49.5203 168.3 50.459C166.124 51.3976 163.585 51.867 160.684 51.867ZM215.507 32.923C215.507 33.947 215.443 35.0136 215.315 36.123H190.547C190.718 38.3416 191.422 40.0483 192.659 41.243C193.939 42.395 195.496 42.971 197.331 42.971C200.062 42.971 201.96 41.819 203.027 39.515H214.675C214.078 41.8616 212.99 43.9736 211.411 45.851C209.875 47.7283 207.934 49.2003 205.587 50.267C203.24 51.3336 200.616 51.867 197.715 51.867C194.216 51.867 191.102 51.1203 188.371 49.627C185.64 48.1336 183.507 46.0003 181.971 43.227C180.435 40.4536 179.667 37.211 179.667 33.499C179.667 29.787 180.414 26.5443 181.907 23.771C183.443 20.9976 185.576 18.8643 188.307 17.371C191.038 15.8776 194.174 15.131 197.715 15.131C201.171 15.131 204.243 15.8563 206.931 17.307C209.619 18.7576 211.71 20.827 213.203 23.515C214.739 26.203 215.507 29.339 215.507 32.923ZM204.307 30.043C204.307 28.1656 203.667 26.6723 202.387 25.563C201.107 24.4536 199.507 23.899 197.587 23.899C195.752 23.899 194.195 24.4323 192.915 25.499C191.678 26.5656 190.91 28.0803 190.611 30.043H204.307ZM232.667 33.499C232.667 29.787 233.414 26.5443 234.907 23.771C236.443 20.9976 238.555 18.8643 241.243 17.371C243.974 15.8776 247.088 15.131 250.587 15.131C255.067 15.131 258.8 16.3043 261.787 18.651C264.816 20.9976 266.8 24.3043 267.739 28.571H256.091C255.11 25.8403 253.211 24.475 250.395 24.475C248.39 24.475 246.79 25.2643 245.595 26.843C244.4 28.379 243.803 30.5976 243.803 33.499C243.803 36.4003 244.4 38.6403 245.595 40.219C246.79 41.755 248.39 42.523 250.395 42.523C253.211 42.523 255.11 41.1576 256.091 38.427H267.739C266.8 42.6083 264.816 45.8936 261.787 48.283C258.758 50.6723 255.024 51.867 250.587 51.867C247.088 51.867 243.974 51.1203 241.243 49.627C238.555 48.1336 236.443 46.0003 234.907 43.227C233.414 40.4536 232.667 37.211 232.667 33.499ZM289.849 51.867C286.35 51.867 283.193 51.1203 280.377 49.627C277.604 48.1336 275.406 46.0003 273.785 43.227C272.206 40.4536 271.417 37.211 271.417 33.499C271.417 29.8296 272.228 26.6083 273.849 23.835C275.47 21.019 277.689 18.8643 280.505 17.371C283.321 15.8776 286.478 15.131 289.977 15.131C293.476 15.131 296.633 15.8776 299.449 17.371C302.265 18.8643 304.484 21.019 306.105 23.835C307.726 26.6083 308.537 29.8296 308.537 33.499C308.537 37.1683 307.705 40.411 306.041 43.227C304.42 46.0003 302.18 48.1336 299.321 49.627C296.505 51.1203 293.348 51.867 289.849 51.867ZM289.849 42.395C291.94 42.395 293.71 41.627 295.161 40.091C296.654 38.555 297.401 36.3576 297.401 33.499C297.401 30.6403 296.676 28.443 295.225 26.907C293.817 25.371 292.068 24.603 289.977 24.603C287.844 24.603 286.073 25.371 284.665 26.907C283.257 28.4003 282.553 30.5976 282.553 33.499C282.553 36.3576 283.236 38.555 284.601 40.091C286.009 41.627 287.758 42.395 289.849 42.395ZM336.103 15.259C340.284 15.259 343.612 16.6243 346.087 19.355C348.604 22.043 349.863 25.755 349.863 30.491V51.355H338.983V31.963C338.983 29.5736 338.364 27.7176 337.127 26.395C335.89 25.0723 334.226 24.411 332.135 24.411C330.044 24.411 328.38 25.0723 327.143 26.395C325.906 27.7176 325.287 29.5736 325.287 31.963V51.355H314.343V15.643H325.287V20.379C326.396 18.8003 327.89 17.563 329.767 16.667C331.644 15.7283 333.756 15.259 336.103 15.259ZM377.372 42.075V51.355H371.804C367.836 51.355 364.743 50.395 362.524 48.475C360.305 46.5123 359.196 43.3336 359.196 38.939V24.731H354.844V15.643H359.196V6.93898H370.14V15.643H377.308V24.731H370.14V39.067C370.14 40.1336 370.396 40.9016 370.908 41.371C371.42 41.8403 372.273 42.075 373.468 42.075H377.372ZM381.292 33.435C381.292 29.7656 381.975 26.5443 383.34 23.771C384.748 20.9976 386.647 18.8643 389.036 17.371C391.425 15.8776 394.092 15.131 397.036 15.131C399.553 15.131 401.751 15.643 403.628 16.667C405.548 17.691 407.02 19.035 408.044 20.699V15.643H418.988V51.355H408.044V46.299C406.977 47.963 405.484 49.307 403.564 50.331C401.687 51.355 399.489 51.867 396.972 51.867C394.071 51.867 391.425 51.1203 389.036 49.627C386.647 48.091 384.748 45.9363 383.34 43.163C381.975 40.347 381.292 37.1043 381.292 33.435ZM408.044 33.499C408.044 30.7683 407.276 28.6136 405.74 27.035C404.247 25.4563 402.412 24.667 400.236 24.667C398.06 24.667 396.204 25.4563 394.668 27.035C393.175 28.571 392.428 30.7043 392.428 33.435C392.428 36.1656 393.175 38.3416 394.668 39.963C396.204 41.5416 398.06 42.331 400.236 42.331C402.412 42.331 404.247 41.5416 405.74 39.963C407.276 38.3843 408.044 36.2296 408.044 33.499ZM424.73 33.499C424.73 29.787 425.476 26.5443 426.97 23.771C428.506 20.9976 430.618 18.8643 433.306 17.371C436.036 15.8776 439.151 15.131 442.65 15.131C447.13 15.131 450.863 16.3043 453.85 18.651C456.879 20.9976 458.863 24.3043 459.802 28.571H448.154C447.172 25.8403 445.274 24.475 442.458 24.475C440.452 24.475 438.852 25.2643 437.658 26.843C436.463 28.379 435.866 30.5976 435.866 33.499C435.866 36.4003 436.463 38.6403 437.658 40.219C438.852 41.755 440.452 42.523 442.458 42.523C445.274 42.523 447.172 41.1576 448.154 38.427H459.802C458.863 42.6083 456.879 45.8936 453.85 48.283C450.82 50.6723 447.087 51.867 442.65 51.867C439.151 51.867 436.036 51.1203 433.306 49.627C430.618 48.1336 428.506 46.0003 426.97 43.227C425.476 40.4536 424.73 37.211 424.73 33.499ZM485.56 42.075V51.355H479.992C476.024 51.355 472.93 50.395 470.712 48.475C468.493 46.5123 467.384 43.3336 467.384 38.939V24.731H463.032V15.643H467.384V6.93898H478.328V15.643H485.496V24.731H478.328V39.067C478.328 40.1336 478.584 40.9016 479.096 41.371C479.608 41.8403 480.461 42.075 481.656 42.075H485.56ZM550.786 15.259C555.223 15.259 558.743 16.603 561.346 19.291C563.991 21.979 565.314 25.7123 565.314 30.491V51.355H554.434V31.963C554.434 29.659 553.815 27.8883 552.578 26.651C551.383 25.371 549.719 24.731 547.586 24.731C545.453 24.731 543.767 25.371 542.53 26.651C541.335 27.8883 540.738 29.659 540.738 31.963V51.355H529.858V31.963C529.858 29.659 529.239 27.8883 528.002 26.651C526.807 25.371 525.143 24.731 523.01 24.731C520.877 24.731 519.191 25.371 517.954 26.651C516.759 27.8883 516.162 29.659 516.162 31.963V51.355H505.218V15.643H516.162V20.123C517.271 18.6296 518.722 17.4563 520.514 16.603C522.306 15.707 524.333 15.259 526.594 15.259C529.282 15.259 531.671 15.835 533.762 16.987C535.895 18.139 537.559 19.7816 538.754 21.915C539.991 19.9523 541.677 18.3523 543.81 17.115C545.943 15.8776 548.269 15.259 550.786 15.259ZM606.632 32.923C606.632 33.947 606.568 35.0136 606.44 36.123H581.672C581.843 38.3416 582.547 40.0483 583.784 41.243C585.064 42.395 586.621 42.971 588.456 42.971C591.187 42.971 593.085 41.819 594.152 39.515H605.8C605.203 41.8616 604.115 43.9736 602.536 45.851C601 47.7283 599.059 49.2003 596.712 50.267C594.365 51.3336 591.741 51.867 588.84 51.867C585.341 51.867 582.227 51.1203 579.496 49.627C576.765 48.1336 574.632 46.0003 573.096 43.227C571.56 40.4536 570.792 37.211 570.792 33.499C570.792 29.787 571.539 26.5443 573.032 23.771C574.568 20.9976 576.701 18.8643 579.432 17.371C582.163 15.8776 585.299 15.131 588.84 15.131C592.296 15.131 595.368 15.8563 598.056 17.307C600.744 18.7576 602.835 20.827 604.328 23.515C605.864 26.203 606.632 29.339 606.632 32.923ZM595.432 30.043C595.432 28.1656 594.792 26.6723 593.512 25.563C592.232 24.4536 590.632 23.899 588.712 23.899C586.877 23.899 585.32 24.4323 584.04 25.499C582.803 26.5656 582.035 28.0803 581.736 30.043H595.432ZM642.032 41.115L649.776 15.643H661.424L648.752 51.355H635.248L622.576 15.643H634.288L642.032 41.115ZM671.535 11.931C669.615 11.931 668.036 11.3763 666.799 10.267C665.604 9.11498 665.007 7.70698 665.007 6.04298C665.007 4.33631 665.604 2.92831 666.799 1.81898C668.036 0.666977 669.615 0.0909767 671.535 0.0909767C673.412 0.0909767 674.948 0.666977 676.143 1.81898C677.38 2.92831 677.999 4.33631 677.999 6.04298C677.999 7.70698 677.38 9.11498 676.143 10.267C674.948 11.3763 673.412 11.931 671.535 11.931ZM676.975 15.643V51.355H666.031V15.643H676.975ZM682.73 33.435C682.73 29.7656 683.412 26.5443 684.778 23.771C686.186 20.9976 688.084 18.8643 690.474 17.371C692.863 15.8776 695.53 15.131 698.474 15.131C700.991 15.131 703.188 15.643 705.066 16.667C706.986 17.691 708.458 19.035 709.482 20.699V15.643H720.426V51.355H709.482V46.299C708.415 47.963 706.922 49.307 705.002 50.331C703.124 51.355 700.927 51.867 698.41 51.867C695.508 51.867 692.863 51.1203 690.474 49.627C688.084 48.091 686.186 45.9363 684.778 43.163C683.412 40.347 682.73 37.1043 682.73 33.435ZM709.482 33.499C709.482 30.7683 708.714 28.6136 707.178 27.035C705.684 25.4563 703.85 24.667 701.674 24.667C699.498 24.667 697.642 25.4563 696.106 27.035C694.612 28.571 693.866 30.7043 693.866 33.435C693.866 36.1656 694.612 38.3416 696.106 39.963C697.642 41.5416 699.498 42.331 701.674 42.331C703.85 42.331 705.684 41.5416 707.178 39.963C708.714 38.3843 709.482 36.2296 709.482 33.499ZM961.763 24.731H955.875V51.355H944.931V24.731H940.963V15.643H944.931V14.619C944.931 10.2243 946.19 6.89631 948.707 4.63498C951.224 2.33098 954.915 1.17898 959.779 1.17898C960.59 1.17898 961.187 1.20031 961.571 1.24298V10.523C959.48 10.395 958.008 10.6936 957.155 11.419C956.302 12.1443 955.875 13.4456 955.875 15.323V15.643H961.763V24.731ZM983.162 51.867C979.663 51.867 976.506 51.1203 973.69 49.627C970.916 48.1336 968.719 46.0003 967.098 43.227C965.519 40.4536 964.73 37.211 964.73 33.499C964.73 29.8296 965.54 26.6083 967.161 23.835C968.783 21.019 971.002 18.8643 973.818 17.371C976.634 15.8776 979.791 15.131 983.29 15.131C986.788 15.131 989.946 15.8776 992.762 17.371C995.578 18.8643 997.796 21.019 999.418 23.835C1001.04 26.6083 1001.85 29.8296 1001.85 33.499C1001.85 37.1683 1001.02 40.411 999.354 43.227C997.732 46.0003 995.492 48.1336 992.634 49.627C989.818 51.1203 986.66 51.867 983.162 51.867ZM983.162 42.395C985.252 42.395 987.023 41.627 988.474 40.091C989.967 38.555 990.714 36.3576 990.714 33.499C990.714 30.6403 989.988 28.443 988.538 26.907C987.13 25.371 985.38 24.603 983.29 24.603C981.156 24.603 979.386 25.371 977.978 26.907C976.57 28.4003 975.866 30.5976 975.866 33.499C975.866 36.3576 976.548 38.555 977.914 40.091C979.322 41.627 981.071 42.395 983.162 42.395ZM1018.6 21.595C1019.88 19.6323 1021.48 18.0963 1023.4 16.987C1025.32 15.835 1027.45 15.259 1029.8 15.259V26.843H1026.79C1024.06 26.843 1022.01 27.4403 1020.65 28.635C1019.28 29.787 1018.6 31.835 1018.6 34.779V51.355H1007.66V15.643H1018.6V21.595ZM1046.42 33.435C1046.42 29.7656 1047.1 26.5443 1048.47 23.771C1049.87 20.9976 1051.77 18.8643 1054.16 17.371C1056.55 15.8776 1059.22 15.131 1062.16 15.131C1064.68 15.131 1066.88 15.643 1068.75 16.667C1070.67 17.691 1072.15 19.035 1073.17 20.699V15.643H1084.11V51.355H1073.17V46.299C1072.1 47.963 1070.61 49.307 1068.69 50.331C1066.81 51.355 1064.61 51.867 1062.1 51.867C1059.2 51.867 1056.55 51.1203 1054.16 49.627C1051.77 48.091 1049.87 45.9363 1048.47 43.163C1047.1 40.347 1046.42 37.1043 1046.42 33.435ZM1073.17 33.499C1073.17 30.7683 1072.4 28.6136 1070.87 27.035C1069.37 25.4563 1067.54 24.667 1065.36 24.667C1063.19 24.667 1061.33 25.4563 1059.79 27.035C1058.3 28.571 1057.55 30.7043 1057.55 33.435C1057.55 36.1656 1058.3 38.3416 1059.79 39.963C1061.33 41.5416 1063.19 42.331 1065.36 42.331C1067.54 42.331 1069.37 41.5416 1070.87 39.963C1072.4 38.3843 1073.17 36.2296 1073.17 33.499ZM1113.79 15.259C1117.97 15.259 1121.3 16.6243 1123.77 19.355C1126.29 22.043 1127.55 25.755 1127.55 30.491V51.355H1116.67V31.963C1116.67 29.5736 1116.05 27.7176 1114.81 26.395C1113.58 25.0723 1111.91 24.411 1109.82 24.411C1107.73 24.411 1106.07 25.0723 1104.83 26.395C1103.59 27.7176 1102.97 29.5736 1102.97 31.963V51.355H1092.03V15.643H1102.97V20.379C1104.08 18.8003 1105.58 17.563 1107.45 16.667C1109.33 15.7283 1111.44 15.259 1113.79 15.259ZM1171.64 15.643L1149.24 68.315H1137.46L1145.65 50.139L1131.12 15.643H1143.35L1151.6 37.979L1159.8 15.643H1171.64ZM15.412 84.699C16.436 83.035 17.908 81.691 19.828 80.667C21.748 79.643 23.9453 79.131 26.42 79.131C29.364 79.131 32.0307 79.8776 34.42 81.371C36.8093 82.8643 38.6867 84.9976 40.052 87.771C41.46 90.5443 42.164 93.7656 42.164 97.435C42.164 101.104 41.46 104.347 40.052 107.163C38.6867 109.936 36.8093 112.091 34.42 113.627C32.0307 115.12 29.364 115.867 26.42 115.867C23.9027 115.867 21.7053 115.376 19.828 114.395C17.9507 113.371 16.4787 112.027 15.412 110.363V115.355H4.468V67.995H15.412V84.699ZM31.028 97.435C31.028 94.7043 30.26 92.571 28.724 91.035C27.2307 89.4563 25.3747 88.667 23.156 88.667C20.98 88.667 19.124 89.4563 17.588 91.035C16.0947 92.6136 15.348 94.7683 15.348 97.499C15.348 100.23 16.0947 102.384 17.588 103.963C19.124 105.542 20.98 106.331 23.156 106.331C25.332 106.331 27.188 105.542 28.724 103.963C30.26 102.342 31.028 100.166 31.028 97.435ZM83.1695 79.643V115.355H72.2255V110.491C71.1162 112.07 69.6015 113.35 67.6815 114.331C65.8042 115.27 63.7135 115.739 61.4095 115.739C58.6788 115.739 56.2682 115.142 54.1775 113.947C52.0868 112.71 50.4655 110.939 49.3135 108.635C48.1615 106.331 47.5855 103.622 47.5855 100.507V79.643H58.4655V99.035C58.4655 101.424 59.0842 103.28 60.3215 104.603C61.5588 105.926 63.2228 106.587 65.3135 106.587C67.4468 106.587 69.1322 105.926 70.3695 104.603C71.6068 103.28 72.2255 101.424 72.2255 99.035V79.643H83.1695ZM105.559 115.867C102.444 115.867 99.6705 115.334 97.2385 114.267C94.8065 113.2 92.8865 111.75 91.4785 109.915C90.0705 108.038 89.2812 105.947 89.1105 103.643H99.9265C100.055 104.88 100.631 105.883 101.655 106.651C102.679 107.419 103.937 107.803 105.431 107.803C106.796 107.803 107.841 107.547 108.567 107.035C109.335 106.48 109.719 105.776 109.719 104.923C109.719 103.899 109.185 103.152 108.119 102.683C107.052 102.171 105.324 101.616 102.935 101.019C100.375 100.422 98.2412 99.803 96.5345 99.163C94.8278 98.4803 93.3558 97.435 92.1185 96.027C90.8812 94.5763 90.2625 92.635 90.2625 90.203C90.2625 88.155 90.8172 86.299 91.9265 84.635C93.0785 82.9283 94.7425 81.5843 96.9185 80.603C99.1372 79.6216 101.761 79.131 104.791 79.131C109.271 79.131 112.791 80.2403 115.351 82.459C117.953 84.6776 119.447 87.6216 119.831 91.291H109.719C109.548 90.0536 108.993 89.0723 108.055 88.347C107.159 87.6216 105.964 87.259 104.471 87.259C103.191 87.259 102.209 87.515 101.527 88.027C100.844 88.4963 100.503 89.1576 100.503 90.011C100.503 91.035 101.036 91.803 102.103 92.315C103.212 92.827 104.919 93.339 107.223 93.851C109.868 94.5336 112.023 95.2163 113.687 95.899C115.351 96.539 116.801 97.6056 118.039 99.099C119.319 100.55 119.98 102.512 120.023 104.987C120.023 107.078 119.425 108.955 118.231 110.619C117.079 112.24 115.393 113.52 113.175 114.459C110.999 115.398 108.46 115.867 105.559 115.867ZM132.222 75.931C130.302 75.931 128.723 75.3763 127.486 74.267C126.291 73.115 125.694 71.707 125.694 70.043C125.694 68.3363 126.291 66.9283 127.486 65.819C128.723 64.667 130.302 64.091 132.222 64.091C134.099 64.091 135.635 64.667 136.83 65.819C138.067 66.9283 138.686 68.3363 138.686 70.043C138.686 71.707 138.067 73.115 136.83 74.267C135.635 75.3763 134.099 75.931 132.222 75.931ZM137.662 79.643V115.355H126.718V79.643H137.662ZM167.353 79.259C171.534 79.259 174.862 80.6243 177.337 83.355C179.854 86.043 181.113 89.755 181.113 94.491V115.355H170.233V95.963C170.233 93.5736 169.614 91.7176 168.377 90.395C167.14 89.0723 165.476 88.411 163.385 88.411C161.294 88.411 159.63 89.0723 158.393 90.395C157.156 91.7176 156.537 93.5736 156.537 95.963V115.355H145.593V79.643H156.537V84.379C157.646 82.8003 159.14 81.563 161.017 80.667C162.894 79.7283 165.006 79.259 167.353 79.259ZM222.382 96.923C222.382 97.947 222.318 99.0136 222.19 100.123H197.422C197.593 102.342 198.297 104.048 199.534 105.243C200.814 106.395 202.371 106.971 204.206 106.971C206.937 106.971 208.835 105.819 209.902 103.515H221.55C220.953 105.862 219.865 107.974 218.286 109.851C216.75 111.728 214.809 113.2 212.462 114.267C210.115 115.334 207.491 115.867 204.59 115.867C201.091 115.867 197.977 115.12 195.246 113.627C192.515 112.134 190.382 110 188.846 107.227C187.31 104.454 186.542 101.211 186.542 97.499C186.542 93.787 187.289 90.5443 188.782 87.771C190.318 84.9976 192.451 82.8643 195.182 81.371C197.913 79.8776 201.049 79.131 204.59 79.131C208.046 79.131 211.118 79.8563 213.806 81.307C216.494 82.7576 218.585 84.827 220.078 87.515C221.614 90.203 222.382 93.339 222.382 96.923ZM211.182 94.043C211.182 92.1656 210.542 90.6723 209.262 89.563C207.982 88.4536 206.382 87.899 204.462 87.899C202.627 87.899 201.07 88.4323 199.79 89.499C198.553 90.5656 197.785 92.0803 197.486 94.043H211.182ZM242.684 115.867C239.569 115.867 236.796 115.334 234.364 114.267C231.932 113.2 230.012 111.75 228.604 109.915C227.196 108.038 226.406 105.947 226.236 103.643H237.052C237.18 104.88 237.756 105.883 238.78 106.651C239.804 107.419 241.062 107.803 242.556 107.803C243.921 107.803 244.966 107.547 245.692 107.035C246.46 106.48 246.844 105.776 246.844 104.923C246.844 103.899 246.31 103.152 245.244 102.683C244.177 102.171 242.449 101.616 240.06 101.019C237.5 100.422 235.366 99.803 233.66 99.163C231.953 98.4803 230.481 97.435 229.244 96.027C228.006 94.5763 227.388 92.635 227.388 90.203C227.388 88.155 227.942 86.299 229.052 84.635C230.204 82.9283 231.868 81.5843 234.044 80.603C236.262 79.6216 238.886 79.131 241.916 79.131C246.396 79.131 249.916 80.2403 252.476 82.459C255.078 84.6776 256.572 87.6216 256.956 91.291H246.844C246.673 90.0536 246.118 89.0723 245.18 88.347C244.284 87.6216 243.089 87.259 241.596 87.259C240.316 87.259 239.334 87.515 238.652 88.027C237.969 88.4963 237.628 89.1576 237.628 90.011C237.628 91.035 238.161 91.803 239.228 92.315C240.337 92.827 242.044 93.339 244.348 93.851C246.993 94.5336 249.148 95.2163 250.812 95.899C252.476 96.539 253.926 97.6056 255.164 99.099C256.444 100.55 257.105 102.512 257.148 104.987C257.148 107.078 256.55 108.955 255.356 110.619C254.204 112.24 252.518 113.52 250.3 114.459C248.124 115.398 245.585 115.867 242.684 115.867ZM278.371 115.867C275.256 115.867 272.483 115.334 270.051 114.267C267.619 113.2 265.699 111.75 264.291 109.915C262.883 108.038 262.094 105.947 261.923 103.643H272.739C272.867 104.88 273.443 105.883 274.467 106.651C275.491 107.419 276.75 107.803 278.243 107.803C279.608 107.803 280.654 107.547 281.379 107.035C282.147 106.48 282.531 105.776 282.531 104.923C282.531 103.899 281.998 103.152 280.931 102.683C279.864 102.171 278.136 101.616 275.747 101.019C273.187 100.422 271.054 99.803 269.347 99.163C267.64 98.4803 266.168 97.435 264.931 96.027C263.694 94.5763 263.075 92.635 263.075 90.203C263.075 88.155 263.63 86.299 264.739 84.635C265.891 82.9283 267.555 81.5843 269.731 80.603C271.95 79.6216 274.574 79.131 277.603 79.131C282.083 79.131 285.603 80.2403 288.163 82.459C290.766 84.6776 292.259 87.6216 292.643 91.291H282.531C282.36 90.0536 281.806 89.0723 280.867 88.347C279.971 87.6216 278.776 87.259 277.283 87.259C276.003 87.259 275.022 87.515 274.339 88.027C273.656 88.4963 273.315 89.1576 273.315 90.011C273.315 91.035 273.848 91.803 274.915 92.315C276.024 92.827 277.731 93.339 280.035 93.851C282.68 94.5336 284.835 95.2163 286.499 95.899C288.163 96.539 289.614 97.6056 290.851 99.099C292.131 100.55 292.792 102.512 292.835 104.987C292.835 107.078 292.238 108.955 291.043 110.619C289.891 112.24 288.206 113.52 285.987 114.459C283.811 115.398 281.272 115.867 278.371 115.867ZM346.757 96.923C346.757 97.947 346.693 99.0136 346.565 100.123H321.797C321.968 102.342 322.672 104.048 323.909 105.243C325.189 106.395 326.746 106.971 328.581 106.971C331.312 106.971 333.21 105.819 334.277 103.515H345.925C345.328 105.862 344.24 107.974 342.661 109.851C341.125 111.728 339.184 113.2 336.837 114.267C334.49 115.334 331.866 115.867 328.965 115.867C325.466 115.867 322.352 115.12 319.621 113.627C316.89 112.134 314.757 110 313.221 107.227C311.685 104.454 310.917 101.211 310.917 97.499C310.917 93.787 311.664 90.5443 313.157 87.771C314.693 84.9976 316.826 82.8643 319.557 81.371C322.288 79.8776 325.424 79.131 328.965 79.131C332.421 79.131 335.493 79.8563 338.181 81.307C340.869 82.7576 342.96 84.827 344.453 87.515C345.989 90.203 346.757 93.339 346.757 96.923ZM335.557 94.043C335.557 92.1656 334.917 90.6723 333.637 89.563C332.357 88.4536 330.757 87.899 328.837 87.899C327.002 87.899 325.445 88.4323 324.165 89.499C322.928 90.5656 322.16 92.0803 321.861 94.043H335.557ZM374.291 79.259C378.472 79.259 381.8 80.6243 384.275 83.355C386.792 86.043 388.051 89.755 388.051 94.491V115.355H377.171V95.963C377.171 93.5736 376.552 91.7176 375.315 90.395C374.077 89.0723 372.413 88.411 370.323 88.411C368.232 88.411 366.568 89.0723 365.331 90.395C364.093 91.7176 363.475 93.5736 363.475 95.963V115.355H352.531V79.643H363.475V84.379C364.584 82.8003 366.077 81.563 367.955 80.667C369.832 79.7283 371.944 79.259 374.291 79.259ZM393.48 97.563C393.48 94.0216 394.205 90.8643 395.656 88.091C397.149 85.3176 399.133 83.163 401.608 81.627C404.125 80.0483 406.856 79.259 409.8 79.259C412.061 79.259 414.088 79.6643 415.88 80.475C417.672 81.243 419.122 82.331 420.232 83.739V79.643H431.176V132.379H420.232V110.875C418.994 112.368 417.48 113.563 415.688 114.459C413.938 115.355 411.933 115.803 409.672 115.803C406.77 115.803 404.082 115.035 401.608 113.499C399.133 111.963 397.149 109.808 395.656 107.035C394.205 104.262 393.48 101.104 393.48 97.563ZM420.232 97.499C420.232 95.579 419.848 93.979 419.08 92.699C418.354 91.3763 417.394 90.395 416.2 89.755C415.005 89.0723 413.746 88.731 412.424 88.731C411.144 88.731 409.906 89.0723 408.712 89.755C407.517 90.395 406.536 91.3763 405.768 92.699C405 94.0216 404.616 95.643 404.616 97.563C404.616 99.483 405 101.104 405.768 102.427C406.536 103.707 407.517 104.688 408.712 105.371C409.906 106.011 411.144 106.331 412.424 106.331C413.704 106.331 414.941 106.011 416.136 105.371C417.373 104.688 418.354 103.686 419.08 102.363C419.848 101.04 420.232 99.419 420.232 97.499ZM474.357 79.643V115.355H463.413V110.491C462.304 112.07 460.789 113.35 458.869 114.331C456.992 115.27 454.901 115.739 452.597 115.739C449.866 115.739 447.456 115.142 445.365 113.947C443.274 112.71 441.653 110.939 440.501 108.635C439.349 106.331 438.773 103.622 438.773 100.507V79.643H449.653V99.035C449.653 101.424 450.272 103.28 451.509 104.603C452.746 105.926 454.41 106.587 456.501 106.587C458.634 106.587 460.32 105.926 461.557 104.603C462.794 103.28 463.413 101.424 463.413 99.035V79.643H474.357ZM487.722 75.931C485.802 75.931 484.223 75.3763 482.986 74.267C481.791 73.115 481.194 71.707 481.194 70.043C481.194 68.3363 481.791 66.9283 482.986 65.819C484.223 64.667 485.802 64.091 487.722 64.091C489.599 64.091 491.135 64.667 492.33 65.819C493.567 66.9283 494.186 68.3363 494.186 70.043C494.186 71.707 493.567 73.115 492.33 74.267C491.135 75.3763 489.599 75.931 487.722 75.931ZM493.162 79.643V115.355H482.218V79.643H493.162ZM512.037 85.595C513.317 83.6323 514.917 82.0963 516.837 80.987C518.757 79.835 520.89 79.259 523.237 79.259V90.843H520.229C517.498 90.843 515.45 91.4403 514.085 92.635C512.72 93.787 512.037 95.835 512.037 98.779V115.355H501.093V79.643H512.037V85.595ZM533.972 75.931C532.052 75.931 530.473 75.3763 529.236 74.267C528.041 73.115 527.444 71.707 527.444 70.043C527.444 68.3363 528.041 66.9283 529.236 65.819C530.473 64.667 532.052 64.091 533.972 64.091C535.849 64.091 537.385 64.667 538.58 65.819C539.817 66.9283 540.436 68.3363 540.436 70.043C540.436 71.707 539.817 73.115 538.58 74.267C537.385 75.3763 535.849 75.931 533.972 75.931ZM539.412 79.643V115.355H528.468V79.643H539.412ZM581.007 96.923C581.007 97.947 580.943 99.0136 580.815 100.123H556.047C556.218 102.342 556.922 104.048 558.159 105.243C559.439 106.395 560.996 106.971 562.831 106.971C565.562 106.971 567.46 105.819 568.527 103.515H580.175C579.578 105.862 578.49 107.974 576.911 109.851C575.375 111.728 573.434 113.2 571.087 114.267C568.74 115.334 566.116 115.867 563.215 115.867C559.716 115.867 556.602 115.12 553.871 113.627C551.14 112.134 549.007 110 547.471 107.227C545.935 104.454 545.167 101.211 545.167 97.499C545.167 93.787 545.914 90.5443 547.407 87.771C548.943 84.9976 551.076 82.8643 553.807 81.371C556.538 79.8776 559.674 79.131 563.215 79.131C566.671 79.131 569.743 79.8563 572.431 81.307C575.119 82.7576 577.21 84.827 578.703 87.515C580.239 90.203 581.007 93.339 581.007 96.923ZM569.807 94.043C569.807 92.1656 569.167 90.6723 567.887 89.563C566.607 88.4536 565.007 87.899 563.087 87.899C561.252 87.899 559.695 88.4323 558.415 89.499C557.178 90.5656 556.41 92.0803 556.111 94.043H569.807ZM601.309 115.867C598.194 115.867 595.421 115.334 592.989 114.267C590.557 113.2 588.637 111.75 587.229 109.915C585.821 108.038 585.031 105.947 584.861 103.643H595.677C595.805 104.88 596.381 105.883 597.405 106.651C598.429 107.419 599.687 107.803 601.181 107.803C602.546 107.803 603.591 107.547 604.317 107.035C605.085 106.48 605.469 105.776 605.469 104.923C605.469 103.899 604.935 103.152 603.869 102.683C602.802 102.171 601.074 101.616 598.685 101.019C596.125 100.422 593.991 99.803 592.285 99.163C590.578 98.4803 589.106 97.435 587.869 96.027C586.631 94.5763 586.013 92.635 586.013 90.203C586.013 88.155 586.567 86.299 587.677 84.635C588.829 82.9283 590.493 81.5843 592.669 80.603C594.887 79.6216 597.511 79.131 600.541 79.131C605.021 79.131 608.541 80.2403 611.101 82.459C613.703 84.6776 615.197 87.6216 615.581 91.291H605.469C605.298 90.0536 604.743 89.0723 603.805 88.347C602.909 87.6216 601.714 87.259 600.221 87.259C598.941 87.259 597.959 87.515 597.277 88.027C596.594 88.4963 596.253 89.1576 596.253 90.011C596.253 91.035 596.786 91.803 597.853 92.315C598.962 92.827 600.669 93.339 602.973 93.851C605.618 94.5336 607.773 95.2163 609.437 95.899C611.101 96.539 612.551 97.6056 613.789 99.099C615.069 100.55 615.73 102.512 615.773 104.987C615.773 107.078 615.175 108.955 613.981 110.619C612.829 112.24 611.143 113.52 608.925 114.459C606.749 115.398 604.21 115.867 601.309 115.867ZM636.868 68.827L635.588 99.483H626.308L625.028 68.827H636.868ZM631.108 115.867C629.188 115.867 627.609 115.312 626.372 114.203C625.177 113.051 624.58 111.643 624.58 109.979C624.58 108.272 625.177 106.843 626.372 105.691C627.609 104.539 629.188 103.963 631.108 103.963C632.985 103.963 634.521 104.539 635.716 105.691C636.953 106.843 637.572 108.272 637.572 109.979C637.572 111.643 636.953 113.051 635.716 114.203C634.521 115.312 632.985 115.867 631.108 115.867ZM42.996 198.427L27.444 228.507V243.355H16.5V228.507L0.948 198.427H13.364L22.068 217.243L30.708 198.427H42.996ZM63.6615 243.867C60.1628 243.867 57.0055 243.12 54.1895 241.627C51.4162 240.134 49.2188 238 47.5975 235.227C46.0188 232.454 45.2295 229.211 45.2295 225.499C45.2295 221.83 46.0402 218.608 47.6615 215.835C49.2828 213.019 51.5015 210.864 54.3175 209.371C57.1335 207.878 60.2908 207.131 63.7895 207.131C67.2882 207.131 70.4455 207.878 73.2615 209.371C76.0775 210.864 78.2962 213.019 79.9175 215.835C81.5388 218.608 82.3495 221.83 82.3495 225.499C82.3495 229.168 81.5175 232.411 79.8535 235.227C78.2322 238 75.9922 240.134 73.1335 241.627C70.3175 243.12 67.1602 243.867 63.6615 243.867ZM63.6615 234.395C65.7522 234.395 67.5228 233.627 68.9735 232.091C70.4668 230.555 71.2135 228.358 71.2135 225.499C71.2135 222.64 70.4882 220.443 69.0375 218.907C67.6295 217.371 65.8802 216.603 63.7895 216.603C61.6562 216.603 59.8855 217.371 58.4775 218.907C57.0695 220.4 56.3655 222.598 56.3655 225.499C56.3655 228.358 57.0482 230.555 58.4135 232.091C59.8215 233.627 61.5708 234.395 63.6615 234.395ZM123.42 207.643V243.355H112.476V238.491C111.366 240.07 109.852 241.35 107.932 242.331C106.054 243.27 103.964 243.739 101.66 243.739C98.9288 243.739 96.5182 243.142 94.4275 241.947C92.3368 240.71 90.7155 238.939 89.5635 236.635C88.4115 234.331 87.8355 231.622 87.8355 228.507V207.643H98.7155V227.035C98.7155 229.424 99.3342 231.28 100.572 232.603C101.809 233.926 103.473 234.587 105.564 234.587C107.697 234.587 109.382 233.926 110.62 232.603C111.857 231.28 112.476 229.424 112.476 227.035V207.643H123.42ZM142.667 225.499C142.667 221.787 143.414 218.544 144.907 215.771C146.443 212.998 148.555 210.864 151.243 209.371C153.974 207.878 157.088 207.131 160.587 207.131C165.067 207.131 168.8 208.304 171.787 210.651C174.816 212.998 176.8 216.304 177.739 220.571H166.091C165.11 217.84 163.211 216.475 160.395 216.475C158.39 216.475 156.79 217.264 155.595 218.843C154.4 220.379 153.803 222.598 153.803 225.499C153.803 228.4 154.4 230.64 155.595 232.219C156.79 233.755 158.39 234.523 160.395 234.523C163.211 234.523 165.11 233.158 166.091 230.427H177.739C176.8 234.608 174.816 237.894 171.787 240.283C168.758 242.672 165.024 243.867 160.587 243.867C157.088 243.867 153.974 243.12 151.243 241.627C148.555 240.134 146.443 238 144.907 235.227C143.414 232.454 142.667 229.211 142.667 225.499ZM181.417 225.435C181.417 221.766 182.1 218.544 183.465 215.771C184.873 212.998 186.772 210.864 189.161 209.371C191.55 207.878 194.217 207.131 197.161 207.131C199.678 207.131 201.876 207.643 203.753 208.667C205.673 209.691 207.145 211.035 208.169 212.699V207.643H219.113V243.355H208.169V238.299C207.102 239.963 205.609 241.307 203.689 242.331C201.812 243.355 199.614 243.867 197.097 243.867C194.196 243.867 191.55 243.12 189.161 241.627C186.772 240.091 184.873 237.936 183.465 235.163C182.1 232.347 181.417 229.104 181.417 225.435ZM208.169 225.499C208.169 222.768 207.401 220.614 205.865 219.035C204.372 217.456 202.537 216.667 200.361 216.667C198.185 216.667 196.329 217.456 194.793 219.035C193.3 220.571 192.553 222.704 192.553 225.435C192.553 228.166 193.3 230.342 194.793 231.963C196.329 233.542 198.185 234.331 200.361 234.331C202.537 234.331 204.372 233.542 205.865 231.963C207.401 230.384 208.169 228.23 208.169 225.499ZM248.791 207.259C252.972 207.259 256.3 208.624 258.775 211.355C261.292 214.043 262.551 217.755 262.551 222.491V243.355H251.671V223.963C251.671 221.574 251.052 219.718 249.815 218.395C248.577 217.072 246.913 216.411 244.823 216.411C242.732 216.411 241.068 217.072 239.831 218.395C238.593 219.718 237.975 221.574 237.975 223.963V243.355H227.031V207.643H237.975V212.379C239.084 210.8 240.577 209.563 242.455 208.667C244.332 207.728 246.444 207.259 248.791 207.259ZM281.542 225.435C281.542 221.766 282.225 218.544 283.59 215.771C284.998 212.998 286.897 210.864 289.286 209.371C291.675 207.878 294.342 207.131 297.286 207.131C299.803 207.131 302.001 207.643 303.878 208.667C305.798 209.691 307.27 211.035 308.294 212.699V207.643H319.238V243.355H308.294V238.299C307.227 239.963 305.734 241.307 303.814 242.331C301.937 243.355 299.739 243.867 297.222 243.867C294.321 243.867 291.675 243.12 289.286 241.627C286.897 240.091 284.998 237.936 283.59 235.163C282.225 232.347 281.542 229.104 281.542 225.435ZM308.294 225.499C308.294 222.768 307.526 220.614 305.99 219.035C304.497 217.456 302.662 216.667 300.486 216.667C298.31 216.667 296.454 217.456 294.918 219.035C293.425 220.571 292.678 222.704 292.678 225.435C292.678 228.166 293.425 230.342 294.918 231.963C296.454 233.542 298.31 234.331 300.486 234.331C302.662 234.331 304.497 233.542 305.99 231.963C307.526 230.384 308.294 228.23 308.294 225.499ZM338.1 195.995V243.355H327.156V195.995H338.1ZM360.559 243.867C357.444 243.867 354.671 243.334 352.239 242.267C349.807 241.2 347.887 239.75 346.479 237.915C345.071 236.038 344.281 233.947 344.111 231.643H354.927C355.055 232.88 355.631 233.883 356.655 234.651C357.679 235.419 358.937 235.803 360.431 235.803C361.796 235.803 362.841 235.547 363.567 235.035C364.335 234.48 364.719 233.776 364.719 232.923C364.719 231.899 364.185 231.152 363.119 230.683C362.052 230.171 360.324 229.616 357.935 229.019C355.375 228.422 353.241 227.803 351.535 227.163C349.828 226.48 348.356 225.435 347.119 224.027C345.881 222.576 345.263 220.635 345.263 218.203C345.263 216.155 345.817 214.299 346.927 212.635C348.079 210.928 349.743 209.584 351.919 208.603C354.137 207.622 356.761 207.131 359.791 207.131C364.271 207.131 367.791 208.24 370.351 210.459C372.953 212.678 374.447 215.622 374.831 219.291H364.719C364.548 218.054 363.993 217.072 363.055 216.347C362.159 215.622 360.964 215.259 359.471 215.259C358.191 215.259 357.209 215.515 356.527 216.027C355.844 216.496 355.503 217.158 355.503 218.011C355.503 219.035 356.036 219.803 357.103 220.315C358.212 220.827 359.919 221.339 362.223 221.851C364.868 222.534 367.023 223.216 368.687 223.899C370.351 224.539 371.801 225.606 373.039 227.099C374.319 228.55 374.98 230.512 375.023 232.987C375.023 235.078 374.425 236.955 373.231 238.619C372.079 240.24 370.393 241.52 368.175 242.459C365.999 243.398 363.46 243.867 360.559 243.867ZM397.974 243.867C394.475 243.867 391.318 243.12 388.502 241.627C385.729 240.134 383.531 238 381.91 235.227C380.331 232.454 379.542 229.211 379.542 225.499C379.542 221.83 380.353 218.608 381.974 215.835C383.595 213.019 385.814 210.864 388.63 209.371C391.446 207.878 394.603 207.131 398.102 207.131C401.601 207.131 404.758 207.878 407.574 209.371C410.39 210.864 412.609 213.019 414.23 215.835C415.851 218.608 416.662 221.83 416.662 225.499C416.662 229.168 415.83 232.411 414.166 235.227C412.545 238 410.305 240.134 407.446 241.627C404.63 243.12 401.473 243.867 397.974 243.867ZM397.974 234.395C400.065 234.395 401.835 233.627 403.286 232.091C404.779 230.555 405.526 228.358 405.526 225.499C405.526 222.64 404.801 220.443 403.35 218.907C401.942 217.371 400.193 216.603 398.102 216.603C395.969 216.603 394.198 217.371 392.79 218.907C391.382 220.4 390.678 222.598 390.678 225.499C390.678 228.358 391.361 230.555 392.726 232.091C394.134 233.627 395.883 234.395 397.974 234.395ZM441.47 203.931C439.551 203.931 437.972 203.376 436.735 202.267C435.54 201.115 434.943 199.707 434.943 198.043C434.943 196.336 435.54 194.928 436.735 193.819C437.972 192.667 439.551 192.091 441.47 192.091C443.348 192.091 444.884 192.667 446.079 193.819C447.316 194.928 447.935 196.336 447.935 198.043C447.935 199.707 447.316 201.115 446.079 202.267C444.884 203.376 443.348 203.931 441.47 203.931ZM446.975 247.963C446.975 252.358 445.865 255.515 443.647 257.435C441.428 259.398 438.335 260.379 434.367 260.379H430.078V251.099H432.703C433.897 251.099 434.751 250.864 435.263 250.395C435.775 249.926 436.031 249.158 436.031 248.091V207.643H446.975V247.963ZM471.099 243.867C467.6 243.867 464.443 243.12 461.627 241.627C458.854 240.134 456.656 238 455.035 235.227C453.456 232.454 452.667 229.211 452.667 225.499C452.667 221.83 453.478 218.608 455.099 215.835C456.72 213.019 458.939 210.864 461.755 209.371C464.571 207.878 467.728 207.131 471.227 207.131C474.726 207.131 477.883 207.878 480.699 209.371C483.515 210.864 485.734 213.019 487.355 215.835C488.976 218.608 489.787 221.83 489.787 225.499C489.787 229.168 488.955 232.411 487.291 235.227C485.67 238 483.43 240.134 480.571 241.627C477.755 243.12 474.598 243.867 471.099 243.867ZM471.099 234.395C473.19 234.395 474.96 233.627 476.411 232.091C477.904 230.555 478.651 228.358 478.651 225.499C478.651 222.64 477.926 220.443 476.475 218.907C475.067 217.371 473.318 216.603 471.227 216.603C469.094 216.603 467.323 217.371 465.915 218.907C464.507 220.4 463.803 222.598 463.803 225.499C463.803 228.358 464.486 230.555 465.851 232.091C467.259 233.627 469.008 234.395 471.099 234.395ZM501.097 203.931C499.177 203.931 497.598 203.376 496.361 202.267C495.166 201.115 494.569 199.707 494.569 198.043C494.569 196.336 495.166 194.928 496.361 193.819C497.598 192.667 499.177 192.091 501.097 192.091C502.974 192.091 504.51 192.667 505.705 193.819C506.942 194.928 507.561 196.336 507.561 198.043C507.561 199.707 506.942 201.115 505.705 202.267C504.51 203.376 502.974 203.931 501.097 203.931ZM506.537 207.643V243.355H495.593V207.643H506.537ZM536.228 207.259C540.409 207.259 543.737 208.624 546.212 211.355C548.729 214.043 549.988 217.755 549.988 222.491V243.355H539.108V223.963C539.108 221.574 538.489 219.718 537.252 218.395C536.015 217.072 534.351 216.411 532.26 216.411C530.169 216.411 528.505 217.072 527.268 218.395C526.031 219.718 525.412 221.574 525.412 223.963V243.355H514.468V207.643H525.412V212.379C526.521 210.8 528.015 209.563 529.892 208.667C531.769 207.728 533.881 207.259 536.228 207.259ZM591.06 234.075V243.355H585.492C581.524 243.355 578.43 242.395 576.212 240.475C573.993 238.512 572.884 235.334 572.884 230.939V216.731H568.532V207.643H572.884V198.939H583.828V207.643H590.996V216.731H583.828V231.067C583.828 232.134 584.084 232.902 584.596 233.371C585.108 233.84 585.961 234.075 587.156 234.075H591.06ZM619.108 207.259C623.204 207.259 626.489 208.624 628.964 211.355C631.438 214.043 632.676 217.755 632.676 222.491V243.355H621.796V223.963C621.796 221.574 621.177 219.718 619.94 218.395C618.702 217.072 617.038 216.411 614.948 216.411C612.857 216.411 611.193 217.072 609.956 218.395C608.718 219.718 608.1 221.574 608.1 223.963V243.355H597.156V195.995H608.1V212.443C609.209 210.864 610.724 209.606 612.644 208.667C614.564 207.728 616.718 207.259 619.108 207.259ZM673.944 224.923C673.944 225.947 673.881 227.014 673.753 228.123H648.985C649.155 230.342 649.859 232.048 651.097 233.243C652.377 234.395 653.934 234.971 655.769 234.971C658.499 234.971 660.398 233.819 661.465 231.515H673.113C672.515 233.862 671.427 235.974 669.849 237.851C668.313 239.728 666.371 241.2 664.025 242.267C661.678 243.334 659.054 243.867 656.153 243.867C652.654 243.867 649.539 243.12 646.809 241.627C644.078 240.134 641.945 238 640.409 235.227C638.873 232.454 638.105 229.211 638.105 225.499C638.105 221.787 638.851 218.544 640.345 215.771C641.881 212.998 644.014 210.864 646.745 209.371C649.475 207.878 652.611 207.131 656.153 207.131C659.609 207.131 662.681 207.856 665.369 209.307C668.057 210.758 670.147 212.827 671.641 215.515C673.177 218.203 673.944 221.339 673.944 224.923ZM662.745 222.043C662.745 220.166 662.105 218.672 660.825 217.563C659.545 216.454 657.945 215.899 656.025 215.899C654.19 215.899 652.633 216.432 651.353 217.499C650.115 218.566 649.347 220.08 649.049 222.043H662.745ZM727.521 212.891C727.521 215.494 726.923 217.883 725.729 220.059C724.534 222.192 722.699 223.92 720.225 225.243C717.75 226.566 714.678 227.227 711.009 227.227H704.225V243.355H693.281V198.427H711.009C714.593 198.427 717.622 199.046 720.097 200.283C722.571 201.52 724.427 203.227 725.665 205.403C726.902 207.579 727.521 210.075 727.521 212.891ZM710.177 218.523C712.267 218.523 713.825 218.032 714.849 217.051C715.873 216.07 716.385 214.683 716.385 212.891C716.385 211.099 715.873 209.712 714.849 208.731C713.825 207.75 712.267 207.259 710.177 207.259H704.225V218.523H710.177ZM749.282 233.115L757.026 207.643H768.674L756.002 243.355H742.498L729.826 207.643H741.538L749.282 233.115ZM807.521 212.891C807.521 215.494 806.923 217.883 805.729 220.059C804.534 222.192 802.699 223.92 800.225 225.243C797.75 226.566 794.678 227.227 791.009 227.227H784.225V243.355H773.281V198.427H791.009C794.593 198.427 797.622 199.046 800.097 200.283C802.571 201.52 804.427 203.227 805.665 205.403C806.902 207.579 807.521 210.075 807.521 212.891ZM790.177 218.523C792.267 218.523 793.825 218.032 794.849 217.051C795.873 216.07 796.385 214.683 796.385 212.891C796.385 211.099 795.873 209.712 794.849 208.731C793.825 207.75 792.267 207.259 790.177 207.259H784.225V218.523H790.177ZM852.13 198.427V243.355H841.186V224.859H824.162V243.355H813.218V198.427H824.162V216.027H841.186V198.427H852.13ZM895.295 207.643V243.355H884.351V238.491C883.241 240.07 881.727 241.35 879.807 242.331C877.929 243.27 875.839 243.739 873.535 243.739C870.804 243.739 868.393 243.142 866.303 241.947C864.212 240.71 862.591 238.939 861.439 236.635C860.287 234.331 859.711 231.622 859.711 228.507V207.643H870.591V227.035C870.591 229.424 871.209 231.28 872.447 232.603C873.684 233.926 875.348 234.587 877.439 234.587C879.572 234.587 881.257 233.926 882.495 232.603C883.732 231.28 884.351 229.424 884.351 227.035V207.643H895.295ZM914.1 212.699C915.124 211.035 916.596 209.691 918.516 208.667C920.436 207.643 922.633 207.131 925.108 207.131C928.052 207.131 930.718 207.878 933.108 209.371C935.497 210.864 937.374 212.998 938.74 215.771C940.148 218.544 940.852 221.766 940.852 225.435C940.852 229.104 940.148 232.347 938.74 235.163C937.374 237.936 935.497 240.091 933.108 241.627C930.718 243.12 928.052 243.867 925.108 243.867C922.59 243.867 920.393 243.376 918.516 242.395C916.638 241.371 915.166 240.027 914.1 238.363V243.355H903.156V195.995H914.1V212.699ZM929.716 225.435C929.716 222.704 928.948 220.571 927.412 219.035C925.918 217.456 924.062 216.667 921.844 216.667C919.668 216.667 917.812 217.456 916.276 219.035C914.782 220.614 914.036 222.768 914.036 225.499C914.036 228.23 914.782 230.384 916.276 231.963C917.812 233.542 919.668 234.331 921.844 234.331C924.02 234.331 925.876 233.542 927.412 231.963C928.948 230.342 929.716 228.166 929.716 225.435ZM9.972 331.931C8.052 331.931 6.47333 331.376 5.236 330.267C4.04133 329.115 3.444 327.707 3.444 326.043C3.444 324.336 4.04133 322.928 5.236 321.819C6.47333 320.667 8.052 320.091 9.972 320.091C11.8493 320.091 13.3853 320.667 14.58 321.819C15.8173 322.928 16.436 324.336 16.436 326.043C16.436 327.707 15.8173 329.115 14.58 330.267C13.3853 331.376 11.8493 331.931 9.972 331.931ZM15.412 335.643V371.355H4.468V335.643H15.412ZM45.103 335.259C49.2843 335.259 52.6123 336.624 55.087 339.355C57.6043 342.043 58.863 345.755 58.863 350.491V371.355H47.983V351.963C47.983 349.574 47.3643 347.718 46.127 346.395C44.8897 345.072 43.2257 344.411 41.135 344.411C39.0443 344.411 37.3803 345.072 36.143 346.395C34.9057 347.718 34.287 349.574 34.287 351.963V371.355H23.343V335.643H34.287V340.379C35.3963 338.8 36.8897 337.563 38.767 336.667C40.6443 335.728 42.7563 335.259 45.103 335.259ZM96.2865 371.867C92.7878 371.867 89.6305 371.12 86.8145 369.627C84.0412 368.134 81.8438 366 80.2225 363.227C78.6438 360.454 77.8545 357.211 77.8545 353.499C77.8545 349.83 78.6652 346.608 80.2865 343.835C81.9078 341.019 84.1265 338.864 86.9425 337.371C89.7585 335.878 92.9158 335.131 96.4145 335.131C99.9132 335.131 103.071 335.878 105.887 337.371C108.703 338.864 110.921 341.019 112.543 343.835C114.164 346.608 114.975 349.83 114.975 353.499C114.975 357.168 114.143 360.411 112.479 363.227C110.857 366 108.617 368.134 105.759 369.627C102.943 371.12 99.7852 371.867 96.2865 371.867ZM96.2865 362.395C98.3772 362.395 100.148 361.627 101.599 360.091C103.092 358.555 103.839 356.358 103.839 353.499C103.839 350.64 103.113 348.443 101.663 346.907C100.255 345.371 98.5052 344.603 96.4145 344.603C94.2812 344.603 92.5105 345.371 91.1025 346.907C89.6945 348.4 88.9905 350.598 88.9905 353.499C88.9905 356.358 89.6732 358.555 91.0385 360.091C92.4465 361.627 94.1958 362.395 96.2865 362.395ZM131.725 341.595C133.005 339.632 134.605 338.096 136.525 336.987C138.445 335.835 140.578 335.259 142.925 335.259V346.843H139.917C137.186 346.843 135.138 347.44 133.773 348.635C132.407 349.787 131.725 351.835 131.725 354.779V371.355H120.781V335.643H131.725V341.595ZM145.98 353.435C145.98 349.766 146.662 346.544 148.028 343.771C149.436 340.998 151.334 338.864 153.724 337.371C156.113 335.878 158.78 335.131 161.724 335.131C164.07 335.131 166.204 335.622 168.124 336.603C170.086 337.584 171.622 338.907 172.732 340.571V323.995H183.676V371.355H172.732V366.235C171.708 367.942 170.236 369.307 168.316 370.331C166.438 371.355 164.241 371.867 161.724 371.867C158.78 371.867 156.113 371.12 153.724 369.627C151.334 368.091 149.436 365.936 148.028 363.163C146.662 360.347 145.98 357.104 145.98 353.435ZM172.732 353.499C172.732 350.768 171.964 348.614 170.428 347.035C168.934 345.456 167.1 344.667 164.924 344.667C162.748 344.667 160.892 345.456 159.356 347.035C157.862 348.571 157.116 350.704 157.116 353.435C157.116 356.166 157.862 358.342 159.356 359.963C160.892 361.542 162.748 362.331 164.924 362.331C167.1 362.331 168.934 361.542 170.428 359.963C171.964 358.384 172.732 356.23 172.732 353.499ZM225.257 352.923C225.257 353.947 225.193 355.014 225.065 356.123H200.297C200.468 358.342 201.172 360.048 202.409 361.243C203.689 362.395 205.246 362.971 207.081 362.971C209.812 362.971 211.71 361.819 212.777 359.515H224.425C223.828 361.862 222.74 363.974 221.161 365.851C219.625 367.728 217.684 369.2 215.337 370.267C212.99 371.334 210.366 371.867 207.465 371.867C203.966 371.867 200.852 371.12 198.121 369.627C195.39 368.134 193.257 366 191.721 363.227C190.185 360.454 189.417 357.211 189.417 353.499C189.417 349.787 190.164 346.544 191.657 343.771C193.193 340.998 195.326 338.864 198.057 337.371C200.788 335.878 203.924 335.131 207.465 335.131C210.921 335.131 213.993 335.856 216.681 337.307C219.369 338.758 221.46 340.827 222.953 343.515C224.489 346.203 225.257 349.339 225.257 352.923ZM214.057 350.043C214.057 348.166 213.417 346.672 212.137 345.563C210.857 344.454 209.257 343.899 207.337 343.899C205.502 343.899 203.945 344.432 202.665 345.499C201.428 346.566 200.66 348.08 200.361 350.043H214.057ZM241.975 341.595C243.255 339.632 244.855 338.096 246.775 336.987C248.695 335.835 250.828 335.259 253.175 335.259V346.843H250.167C247.436 346.843 245.388 347.44 244.023 348.635C242.657 349.787 241.975 351.835 241.975 354.779V371.355H231.031V335.643H241.975V341.595ZM291.872 362.075V371.355H286.304C282.336 371.355 279.243 370.395 277.024 368.475C274.805 366.512 273.696 363.334 273.696 358.939V344.731H269.344V335.643H273.696V326.939H284.64V335.643H291.808V344.731H284.64V359.067C284.64 360.134 284.896 360.902 285.408 361.371C285.92 361.84 286.773 362.075 287.968 362.075H291.872ZM314.224 371.867C310.725 371.867 307.568 371.12 304.752 369.627C301.979 368.134 299.781 366 298.16 363.227C296.581 360.454 295.792 357.211 295.792 353.499C295.792 349.83 296.603 346.608 298.224 343.835C299.845 341.019 302.064 338.864 304.88 337.371C307.696 335.878 310.853 335.131 314.352 335.131C317.851 335.131 321.008 335.878 323.824 337.371C326.64 338.864 328.859 341.019 330.48 343.835C332.101 346.608 332.912 349.83 332.912 353.499C332.912 357.168 332.08 360.411 330.416 363.227C328.795 366 326.555 368.134 323.696 369.627C320.88 371.12 317.723 371.867 314.224 371.867ZM314.224 362.395C316.315 362.395 318.085 361.627 319.536 360.091C321.029 358.555 321.776 356.358 321.776 353.499C321.776 350.64 321.051 348.443 319.6 346.907C318.192 345.371 316.443 344.603 314.352 344.603C312.219 344.603 310.448 345.371 309.04 346.907C307.632 348.4 306.928 350.598 306.928 353.499C306.928 356.358 307.611 358.555 308.976 360.091C310.384 361.627 312.133 362.395 314.224 362.395ZM365.849 335.131C368.366 335.131 370.563 335.643 372.441 336.667C374.361 337.691 375.833 339.035 376.857 340.699V335.643H387.801V371.291C387.801 374.576 387.139 377.542 385.817 380.187C384.537 382.875 382.553 385.008 379.865 386.587C377.219 388.166 373.913 388.955 369.945 388.955C364.654 388.955 360.366 387.696 357.081 385.179C353.795 382.704 351.918 379.334 351.449 375.067H362.265C362.606 376.432 363.417 377.499 364.697 378.267C365.977 379.078 367.555 379.483 369.433 379.483C371.694 379.483 373.486 378.822 374.809 377.499C376.174 376.219 376.857 374.15 376.857 371.291V366.235C375.79 367.899 374.318 369.264 372.441 370.331C370.563 371.355 368.366 371.867 365.849 371.867C362.905 371.867 360.238 371.12 357.849 369.627C355.459 368.091 353.561 365.936 352.153 363.163C350.787 360.347 350.105 357.104 350.105 353.435C350.105 349.766 350.787 346.544 352.153 343.771C353.561 340.998 355.459 338.864 357.849 337.371C360.238 335.878 362.905 335.131 365.849 335.131ZM376.857 353.499C376.857 350.768 376.089 348.614 374.553 347.035C373.059 345.456 371.225 344.667 369.049 344.667C366.873 344.667 365.017 345.456 363.481 347.035C361.987 348.571 361.241 350.704 361.241 353.435C361.241 356.166 361.987 358.342 363.481 359.963C365.017 361.542 366.873 362.331 369.049 362.331C371.225 362.331 373.059 361.542 374.553 359.963C376.089 358.384 376.857 356.23 376.857 353.499ZM429.382 352.923C429.382 353.947 429.318 355.014 429.19 356.123H404.422C404.593 358.342 405.297 360.048 406.534 361.243C407.814 362.395 409.371 362.971 411.206 362.971C413.937 362.971 415.835 361.819 416.902 359.515H428.55C427.953 361.862 426.865 363.974 425.286 365.851C423.75 367.728 421.809 369.2 419.462 370.267C417.115 371.334 414.491 371.867 411.59 371.867C408.091 371.867 404.977 371.12 402.246 369.627C399.515 368.134 397.382 366 395.846 363.227C394.31 360.454 393.542 357.211 393.542 353.499C393.542 349.787 394.289 346.544 395.782 343.771C397.318 340.998 399.451 338.864 402.182 337.371C404.913 335.878 408.049 335.131 411.59 335.131C415.046 335.131 418.118 335.856 420.806 337.307C423.494 338.758 425.585 340.827 427.078 343.515C428.614 346.203 429.382 349.339 429.382 352.923ZM418.182 350.043C418.182 348.166 417.542 346.672 416.262 345.563C414.982 344.454 413.382 343.899 411.462 343.899C409.627 343.899 408.07 344.432 406.79 345.499C405.553 346.566 404.785 348.08 404.486 350.043H418.182ZM455.06 362.075V371.355H449.492C445.524 371.355 442.43 370.395 440.212 368.475C437.993 366.512 436.884 363.334 436.884 358.939V344.731H432.532V335.643H436.884V326.939H447.828V335.643H454.996V344.731H447.828V359.067C447.828 360.134 448.084 360.902 448.596 361.371C449.108 361.84 449.961 362.075 451.156 362.075H455.06ZM509.982 335.643V371.355H499.038V366.491C497.929 368.07 496.414 369.35 494.494 370.331C492.617 371.27 490.526 371.739 488.222 371.739C485.491 371.739 483.081 371.142 480.99 369.947C478.899 368.71 477.278 366.939 476.126 364.635C474.974 362.331 474.398 359.622 474.398 356.507V335.643H485.278V355.035C485.278 357.424 485.897 359.28 487.134 360.603C488.371 361.926 490.035 362.587 492.126 362.587C494.259 362.587 495.945 361.926 497.182 360.603C498.419 359.28 499.038 357.424 499.038 355.035V335.643H509.982ZM528.787 340.699C529.854 339.035 531.326 337.691 533.203 336.667C535.08 335.643 537.278 335.131 539.795 335.131C542.739 335.131 545.406 335.878 547.795 337.371C550.184 338.864 552.062 340.998 553.427 343.771C554.835 346.544 555.539 349.766 555.539 353.435C555.539 357.104 554.835 360.347 553.427 363.163C552.062 365.936 550.184 368.091 547.795 369.627C545.406 371.12 542.739 371.867 539.795 371.867C537.32 371.867 535.123 371.355 533.203 370.331C531.326 369.307 529.854 367.984 528.787 366.363V388.379H517.843V335.643H528.787V340.699ZM544.403 353.435C544.403 350.704 543.635 348.571 542.099 347.035C540.606 345.456 538.75 344.667 536.531 344.667C534.355 344.667 532.499 345.456 530.963 347.035C529.47 348.614 528.723 350.768 528.723 353.499C528.723 356.23 529.47 358.384 530.963 359.963C532.499 361.542 534.355 362.331 536.531 362.331C538.707 362.331 540.563 361.542 542.099 359.963C543.635 358.342 544.403 356.166 544.403 353.435ZM559.105 353.435C559.105 349.766 559.787 346.544 561.153 343.771C562.561 340.998 564.459 338.864 566.849 337.371C569.238 335.878 571.905 335.131 574.849 335.131C577.195 335.131 579.329 335.622 581.249 336.603C583.211 337.584 584.747 338.907 585.857 340.571V323.995H596.801V371.355H585.857V366.235C584.833 367.942 583.361 369.307 581.441 370.331C579.563 371.355 577.366 371.867 574.849 371.867C571.905 371.867 569.238 371.12 566.849 369.627C564.459 368.091 562.561 365.936 561.153 363.163C559.787 360.347 559.105 357.104 559.105 353.435ZM585.857 353.499C585.857 350.768 585.089 348.614 583.553 347.035C582.059 345.456 580.225 344.667 578.049 344.667C575.873 344.667 574.017 345.456 572.481 347.035C570.987 348.571 570.241 350.704 570.241 353.435C570.241 356.166 570.987 358.342 572.481 359.963C574.017 361.542 575.873 362.331 578.049 362.331C580.225 362.331 582.059 361.542 583.553 359.963C585.089 358.384 585.857 356.23 585.857 353.499ZM602.542 353.435C602.542 349.766 603.225 346.544 604.59 343.771C605.998 340.998 607.897 338.864 610.286 337.371C612.675 335.878 615.342 335.131 618.286 335.131C620.803 335.131 623.001 335.643 624.878 336.667C626.798 337.691 628.27 339.035 629.294 340.699V335.643H640.238V371.355H629.294V366.299C628.227 367.963 626.734 369.307 624.814 370.331C622.937 371.355 620.739 371.867 618.222 371.867C615.321 371.867 612.675 371.12 610.286 369.627C607.897 368.091 605.998 365.936 604.59 363.163C603.225 360.347 602.542 357.104 602.542 353.435ZM629.294 353.499C629.294 350.768 628.526 348.614 626.99 347.035C625.497 345.456 623.662 344.667 621.486 344.667C619.31 344.667 617.454 345.456 615.918 347.035C614.425 348.571 613.678 350.704 613.678 353.435C613.678 356.166 614.425 358.342 615.918 359.963C617.454 361.542 619.31 362.331 621.486 362.331C623.662 362.331 625.497 361.542 626.99 359.963C628.526 358.384 629.294 356.23 629.294 353.499ZM668.06 362.075V371.355H662.492C658.524 371.355 655.43 370.395 653.212 368.475C650.993 366.512 649.884 363.334 649.884 358.939V344.731H645.532V335.643H649.884V326.939H660.828V335.643H667.996V344.731H660.828V359.067C660.828 360.134 661.084 360.902 661.596 361.371C662.108 361.84 662.961 362.075 664.156 362.075H668.06ZM707.819 352.923C707.819 353.947 707.756 355.014 707.628 356.123H682.86C683.03 358.342 683.734 360.048 684.972 361.243C686.252 362.395 687.809 362.971 689.644 362.971C692.374 362.971 694.273 361.819 695.34 359.515H706.988C706.39 361.862 705.302 363.974 703.724 365.851C702.188 367.728 700.246 369.2 697.9 370.267C695.553 371.334 692.929 371.867 690.028 371.867C686.529 371.867 683.414 371.12 680.684 369.627C677.953 368.134 675.82 366 674.284 363.227C672.748 360.454 671.98 357.211 671.98 353.499C671.98 349.787 672.726 346.544 674.22 343.771C675.756 340.998 677.889 338.864 680.62 337.371C683.35 335.878 686.486 335.131 690.028 335.131C693.484 335.131 696.556 335.856 699.244 337.307C701.932 338.758 704.022 340.827 705.516 343.515C707.052 346.203 707.819 349.339 707.819 352.923ZM696.62 350.043C696.62 348.166 695.98 346.672 694.7 345.563C693.42 344.454 691.82 343.899 689.9 343.899C688.065 343.899 686.508 344.432 685.228 345.499C683.99 346.566 683.222 348.08 682.924 350.043H696.62ZM728.121 371.867C725.006 371.867 722.233 371.334 719.801 370.267C717.369 369.2 715.449 367.75 714.041 365.915C712.633 364.038 711.844 361.947 711.673 359.643H722.489C722.617 360.88 723.193 361.883 724.217 362.651C725.241 363.419 726.5 363.803 727.993 363.803C729.358 363.803 730.404 363.547 731.129 363.035C731.897 362.48 732.281 361.776 732.281 360.923C732.281 359.899 731.748 359.152 730.681 358.683C729.614 358.171 727.886 357.616 725.497 357.019C722.937 356.422 720.804 355.803 719.097 355.163C717.39 354.48 715.918 353.435 714.681 352.027C713.444 350.576 712.825 348.635 712.825 346.203C712.825 344.155 713.38 342.299 714.489 340.635C715.641 338.928 717.305 337.584 719.481 336.603C721.7 335.622 724.324 335.131 727.353 335.131C731.833 335.131 735.353 336.24 737.913 338.459C740.516 340.678 742.009 343.622 742.393 347.291H732.281C732.11 346.054 731.556 345.072 730.617 344.347C729.721 343.622 728.526 343.259 727.033 343.259C725.753 343.259 724.772 343.515 724.089 344.027C723.406 344.496 723.065 345.158 723.065 346.011C723.065 347.035 723.598 347.803 724.665 348.315C725.774 348.827 727.481 349.339 729.785 349.851C732.43 350.534 734.585 351.216 736.249 351.899C737.913 352.539 739.364 353.606 740.601 355.099C741.881 356.55 742.542 358.512 742.585 360.987C742.585 363.078 741.988 364.955 740.793 366.619C739.641 368.24 737.956 369.52 735.737 370.459C733.561 371.398 731.022 371.867 728.121 371.867ZM780.763 344.731H774.875V371.355H763.931V344.731H759.963V335.643H763.931V334.619C763.931 330.224 765.19 326.896 767.707 324.635C770.224 322.331 773.915 321.179 778.779 321.179C779.59 321.179 780.187 321.2 780.571 321.243V330.523C778.48 330.395 777.008 330.694 776.155 331.419C775.302 332.144 774.875 333.446 774.875 335.323V335.643H780.763V344.731ZM796.85 341.595C798.13 339.632 799.73 338.096 801.65 336.987C803.57 335.835 805.703 335.259 808.05 335.259V346.843H805.042C802.311 346.843 800.263 347.44 798.898 348.635C797.532 349.787 796.85 351.835 796.85 354.779V371.355H785.906V335.643H796.85V341.595ZM829.537 371.867C826.038 371.867 822.881 371.12 820.065 369.627C817.291 368.134 815.094 366 813.473 363.227C811.894 360.454 811.105 357.211 811.105 353.499C811.105 349.83 811.915 346.608 813.536 343.835C815.158 341.019 817.377 338.864 820.193 337.371C823.009 335.878 826.166 335.131 829.665 335.131C833.163 335.131 836.321 335.878 839.137 337.371C841.953 338.864 844.171 341.019 845.793 343.835C847.414 346.608 848.225 349.83 848.225 353.499C848.225 357.168 847.393 360.411 845.729 363.227C844.107 366 841.867 368.134 839.009 369.627C836.193 371.12 833.035 371.867 829.537 371.867ZM829.537 362.395C831.627 362.395 833.398 361.627 834.849 360.091C836.342 358.555 837.089 356.358 837.089 353.499C837.089 350.64 836.363 348.443 834.913 346.907C833.505 345.371 831.755 344.603 829.665 344.603C827.531 344.603 825.761 345.371 824.353 346.907C822.945 348.4 822.241 350.598 822.241 353.499C822.241 356.358 822.923 358.555 824.289 360.091C825.697 361.627 827.446 362.395 829.537 362.395ZM899.599 335.259C904.036 335.259 907.556 336.603 910.159 339.291C912.804 341.979 914.127 345.712 914.127 350.491V371.355H903.247V351.963C903.247 349.659 902.628 347.888 901.391 346.651C900.196 345.371 898.532 344.731 896.399 344.731C894.265 344.731 892.58 345.371 891.343 346.651C890.148 347.888 889.551 349.659 889.551 351.963V371.355H878.671V351.963C878.671 349.659 878.052 347.888 876.815 346.651C875.62 345.371 873.956 344.731 871.823 344.731C869.689 344.731 868.004 345.371 866.767 346.651C865.572 347.888 864.975 349.659 864.975 351.963V371.355H854.031V335.643H864.975V340.123C866.084 338.63 867.535 337.456 869.327 336.603C871.119 335.707 873.145 335.259 875.407 335.259C878.095 335.259 880.484 335.835 882.575 336.987C884.708 338.139 886.372 339.782 887.567 341.915C888.804 339.952 890.489 338.352 892.623 337.115C894.756 335.878 897.081 335.259 899.599 335.259ZM980.911 335.259C985.348 335.259 988.868 336.603 991.471 339.291C994.116 341.979 995.439 345.712 995.439 350.491V371.355H984.559V351.963C984.559 349.659 983.94 347.888 982.703 346.651C981.508 345.371 979.844 344.731 977.711 344.731C975.578 344.731 973.892 345.371 972.655 346.651C971.46 347.888 970.863 349.659 970.863 351.963V371.355H959.983V351.963C959.983 349.659 959.364 347.888 958.127 346.651C956.932 345.371 955.268 344.731 953.135 344.731C951.002 344.731 949.316 345.371 948.079 346.651C946.884 347.888 946.287 349.659 946.287 351.963V371.355H935.343V335.643H946.287V340.123C947.396 338.63 948.847 337.456 950.639 336.603C952.431 335.707 954.458 335.259 956.719 335.259C959.407 335.259 961.796 335.835 963.887 336.987C966.02 338.139 967.684 339.782 968.879 341.915C970.116 339.952 971.802 338.352 973.935 337.115C976.068 335.878 978.394 335.259 980.911 335.259ZM1039.57 335.643L1017.17 388.315H1005.4L1013.59 370.139L999.061 335.643H1011.29L1019.54 357.979L1027.73 335.643H1039.57ZM1058.06 371.867C1054.94 371.867 1052.17 371.334 1049.74 370.267C1047.31 369.2 1045.39 367.75 1043.98 365.915C1042.57 364.038 1041.78 361.947 1041.61 359.643H1052.43C1052.55 360.88 1053.13 361.883 1054.15 362.651C1055.18 363.419 1056.44 363.803 1057.93 363.803C1059.3 363.803 1060.34 363.547 1061.07 363.035C1061.83 362.48 1062.22 361.776 1062.22 360.923C1062.22 359.899 1061.69 359.152 1060.62 358.683C1059.55 358.171 1057.82 357.616 1055.43 357.019C1052.87 356.422 1050.74 355.803 1049.03 355.163C1047.33 354.48 1045.86 353.435 1044.62 352.027C1043.38 350.576 1042.76 348.635 1042.76 346.203C1042.76 344.155 1043.32 342.299 1044.43 340.635C1045.58 338.928 1047.24 337.584 1049.42 336.603C1051.64 335.622 1054.26 335.131 1057.29 335.131C1061.77 335.131 1065.29 336.24 1067.85 338.459C1070.45 340.678 1071.95 343.622 1072.33 347.291H1062.22C1062.05 346.054 1061.49 345.072 1060.55 344.347C1059.66 343.622 1058.46 343.259 1056.97 343.259C1055.69 343.259 1054.71 343.515 1054.03 344.027C1053.34 344.496 1053 345.158 1053 346.011C1053 347.035 1053.54 347.803 1054.6 348.315C1055.71 348.827 1057.42 349.339 1059.72 349.851C1062.37 350.534 1064.52 351.216 1066.19 351.899C1067.85 352.539 1069.3 353.606 1070.54 355.099C1071.82 356.55 1072.48 358.512 1072.52 360.987C1072.52 363.078 1071.93 364.955 1070.73 366.619C1069.58 368.24 1067.89 369.52 1065.67 370.459C1063.5 371.398 1060.96 371.867 1058.06 371.867ZM1112.88 352.923C1112.88 353.947 1112.82 355.014 1112.69 356.123H1087.92C1088.09 358.342 1088.8 360.048 1090.03 361.243C1091.31 362.395 1092.87 362.971 1094.71 362.971C1097.44 362.971 1099.34 361.819 1100.4 359.515H1112.05C1111.45 361.862 1110.36 363.974 1108.79 365.851C1107.25 367.728 1105.31 369.2 1102.96 370.267C1100.62 371.334 1097.99 371.867 1095.09 371.867C1091.59 371.867 1088.48 371.12 1085.75 369.627C1083.02 368.134 1080.88 366 1079.35 363.227C1077.81 360.454 1077.04 357.211 1077.04 353.499C1077.04 349.787 1077.79 346.544 1079.28 343.771C1080.82 340.998 1082.95 338.864 1085.68 337.371C1088.41 335.878 1091.55 335.131 1095.09 335.131C1098.55 335.131 1101.62 335.856 1104.31 337.307C1106.99 338.758 1109.08 340.827 1110.58 343.515C1112.11 346.203 1112.88 349.339 1112.88 352.923ZM1101.68 350.043C1101.68 348.166 1101.04 346.672 1099.76 345.563C1098.48 344.454 1096.88 343.899 1094.96 343.899C1093.13 343.899 1091.57 344.432 1090.29 345.499C1089.05 346.566 1088.28 348.08 1087.99 350.043H1101.68ZM1129.6 323.995V371.355H1118.66V323.995H1129.6ZM1155.45 344.731H1149.56V371.355H1138.62V344.731H1134.65V335.643H1138.62V334.619C1138.62 330.224 1139.88 326.896 1142.39 324.635C1144.91 322.331 1148.6 321.179 1153.47 321.179C1154.28 321.179 1154.87 321.2 1155.26 321.243V330.523C1153.17 330.395 1151.7 330.694 1150.84 331.419C1149.99 332.144 1149.56 333.446 1149.56 335.323V335.643H1155.45V344.731ZM1165.71 371.867C1163.79 371.867 1162.21 371.312 1160.98 370.203C1159.78 369.051 1159.19 367.643 1159.19 365.979C1159.19 364.272 1159.78 362.843 1160.98 361.691C1162.21 360.539 1163.79 359.963 1165.71 359.963C1167.59 359.963 1169.13 360.539 1170.32 361.691C1171.56 362.843 1172.18 364.272 1172.18 365.979C1172.18 367.643 1171.56 369.051 1170.32 370.203C1169.13 371.312 1167.59 371.867 1165.71 371.867Z" fill="#3A294B"/>
<path d="M775.569 32.923C775.569 33.947 775.506 35.0136 775.378 36.123H750.61C750.78 38.3416 751.484 40.0483 752.722 41.243C754.002 42.395 755.559 42.971 757.394 42.971C760.124 42.971 762.023 41.819 763.09 39.515H774.738C774.14 41.8616 773.052 43.9736 771.474 45.851C769.938 47.7283 767.996 49.2003 765.65 50.267C763.303 51.3336 760.679 51.867 757.778 51.867C754.279 51.867 751.164 51.1203 748.434 49.627C745.703 48.1336 743.57 46.0003 742.034 43.227C740.498 40.4536 739.73 37.211 739.73 33.499C739.73 29.787 740.476 26.5443 741.97 23.771C743.506 20.9976 745.639 18.8643 748.37 17.371C751.1 15.8776 754.236 15.131 757.778 15.131C761.234 15.131 764.306 15.8563 766.994 17.307C769.682 18.7576 771.772 20.827 773.266 23.515C774.802 26.203 775.569 29.339 775.569 32.923ZM764.37 30.043C764.37 28.1656 763.73 26.6723 762.45 25.563C761.17 24.4536 759.57 23.899 757.65 23.899C755.815 23.899 754.258 24.4323 752.978 25.499C751.74 26.5656 750.972 28.0803 750.674 30.043H764.37ZM826.911 15.259C831.348 15.259 834.868 16.603 837.471 19.291C840.116 21.979 841.439 25.7123 841.439 30.491V51.355H830.559V31.963C830.559 29.659 829.94 27.8883 828.703 26.651C827.508 25.371 825.844 24.731 823.711 24.731C821.578 24.731 819.892 25.371 818.655 26.651C817.46 27.8883 816.863 29.659 816.863 31.963V51.355H805.983V31.963C805.983 29.659 805.364 27.8883 804.127 26.651C802.932 25.371 801.268 24.731 799.135 24.731C797.002 24.731 795.316 25.371 794.079 26.651C792.884 27.8883 792.287 29.659 792.287 31.963V51.355H781.343V15.643H792.287V20.123C793.396 18.6296 794.847 17.4563 796.639 16.603C798.431 15.707 800.458 15.259 802.719 15.259C805.407 15.259 807.796 15.835 809.887 16.987C812.02 18.139 813.684 19.7816 814.879 21.915C816.116 19.9523 817.802 18.3523 819.935 17.115C822.068 15.8776 824.394 15.259 826.911 15.259ZM846.917 33.435C846.917 29.7656 847.6 26.5443 848.965 23.771C850.373 20.9976 852.272 18.8643 854.661 17.371C857.05 15.8776 859.717 15.131 862.661 15.131C865.178 15.131 867.376 15.643 869.253 16.667C871.173 17.691 872.645 19.035 873.669 20.699V15.643H884.613V51.355H873.669V46.299C872.602 47.963 871.109 49.307 869.189 50.331C867.312 51.355 865.114 51.867 862.597 51.867C859.696 51.867 857.05 51.1203 854.661 49.627C852.272 48.091 850.373 45.9363 848.965 43.163C847.6 40.347 846.917 37.1043 846.917 33.435ZM873.669 33.499C873.669 30.7683 872.901 28.6136 871.365 27.035C869.872 25.4563 868.037 24.667 865.861 24.667C863.685 24.667 861.829 25.4563 860.293 27.035C858.8 28.571 858.053 30.7043 858.053 33.435C858.053 36.1656 858.8 38.3416 860.293 39.963C861.829 41.5416 863.685 42.331 865.861 42.331C868.037 42.331 869.872 41.5416 871.365 39.963C872.901 38.3843 873.669 36.2296 873.669 33.499ZM898.035 11.931C896.115 11.931 894.536 11.3763 893.299 10.267C892.104 9.11498 891.507 7.70698 891.507 6.04298C891.507 4.33631 892.104 2.92831 893.299 1.81898C894.536 0.666977 896.115 0.0909767 898.035 0.0909767C899.912 0.0909767 901.448 0.666977 902.643 1.81898C903.88 2.92831 904.499 4.33631 904.499 6.04298C904.499 7.70698 903.88 9.11498 902.643 10.267C901.448 11.3763 899.912 11.931 898.035 11.931ZM903.475 15.643V51.355H892.531V15.643H903.475ZM922.35 3.99498V51.355H911.406V3.99498H922.35ZM976.988 198.427C981.724 198.427 985.862 199.366 989.404 201.243C992.945 203.12 995.676 205.766 997.596 209.179C999.558 212.55 1000.54 216.454 1000.54 220.891C1000.54 225.286 999.558 229.19 997.596 232.603C995.676 236.016 992.924 238.662 989.34 240.539C985.798 242.416 981.681 243.355 976.988 243.355H960.156V198.427H976.988ZM976.284 233.883C980.422 233.883 983.644 232.752 985.948 230.491C988.252 228.23 989.404 225.03 989.404 220.891C989.404 216.752 988.252 213.531 985.948 211.227C983.644 208.923 980.422 207.771 976.284 207.771H971.1V233.883H976.284ZM1012.16 203.931C1010.24 203.931 1008.66 203.376 1007.42 202.267C1006.23 201.115 1005.63 199.707 1005.63 198.043C1005.63 196.336 1006.23 194.928 1007.42 193.819C1008.66 192.667 1010.24 192.091 1012.16 192.091C1014.04 192.091 1015.57 192.667 1016.77 193.819C1018 194.928 1018.62 196.336 1018.62 198.043C1018.62 199.707 1018 201.115 1016.77 202.267C1015.57 203.376 1014.04 203.931 1012.16 203.931ZM1017.6 207.643V243.355H1006.66V207.643H1017.6ZM1040.06 243.867C1036.94 243.867 1034.17 243.334 1031.74 242.267C1029.31 241.2 1027.39 239.75 1025.98 237.915C1024.57 236.038 1023.78 233.947 1023.61 231.643H1034.43C1034.55 232.88 1035.13 233.883 1036.15 234.651C1037.18 235.419 1038.44 235.803 1039.93 235.803C1041.3 235.803 1042.34 235.547 1043.07 235.035C1043.83 234.48 1044.22 233.776 1044.22 232.923C1044.22 231.899 1043.69 231.152 1042.62 230.683C1041.55 230.171 1039.82 229.616 1037.43 229.019C1034.87 228.422 1032.74 227.803 1031.03 227.163C1029.33 226.48 1027.86 225.435 1026.62 224.027C1025.38 222.576 1024.76 220.635 1024.76 218.203C1024.76 216.155 1025.32 214.299 1026.43 212.635C1027.58 210.928 1029.24 209.584 1031.42 208.603C1033.64 207.622 1036.26 207.131 1039.29 207.131C1043.77 207.131 1047.29 208.24 1049.85 210.459C1052.45 212.678 1053.95 215.622 1054.33 219.291H1044.22C1044.05 218.054 1043.49 217.072 1042.55 216.347C1041.66 215.622 1040.46 215.259 1038.97 215.259C1037.69 215.259 1036.71 215.515 1036.03 216.027C1035.34 216.496 1035 217.158 1035 218.011C1035 219.035 1035.54 219.803 1036.6 220.315C1037.71 220.827 1039.42 221.339 1041.72 221.851C1044.37 222.534 1046.52 223.216 1048.19 223.899C1049.85 224.539 1051.3 225.606 1052.54 227.099C1053.82 228.55 1054.48 230.512 1054.52 232.987C1054.52 235.078 1053.93 236.955 1052.73 238.619C1051.58 240.24 1049.89 241.52 1047.67 242.459C1045.5 243.398 1042.96 243.867 1040.06 243.867ZM1059.04 225.499C1059.04 221.787 1059.79 218.544 1061.28 215.771C1062.82 212.998 1064.93 210.864 1067.62 209.371C1070.35 207.878 1073.46 207.131 1076.96 207.131C1081.44 207.131 1085.18 208.304 1088.16 210.651C1091.19 212.998 1093.18 216.304 1094.11 220.571H1082.47C1081.48 217.84 1079.59 216.475 1076.77 216.475C1074.76 216.475 1073.16 217.264 1071.97 218.843C1070.78 220.379 1070.18 222.598 1070.18 225.499C1070.18 228.4 1070.78 230.64 1071.97 232.219C1073.16 233.755 1074.76 234.523 1076.77 234.523C1079.59 234.523 1081.48 233.158 1082.47 230.427H1094.11C1093.18 234.608 1091.19 237.894 1088.16 240.283C1085.13 242.672 1081.4 243.867 1076.96 243.867C1073.46 243.867 1070.35 243.12 1067.62 241.627C1064.93 240.134 1062.82 238 1061.28 235.227C1059.79 232.454 1059.04 229.211 1059.04 225.499ZM1116.22 243.867C1112.73 243.867 1109.57 243.12 1106.75 241.627C1103.98 240.134 1101.78 238 1100.16 235.227C1098.58 232.454 1097.79 229.211 1097.79 225.499C1097.79 221.83 1098.6 218.608 1100.22 215.835C1101.85 213.019 1104.06 210.864 1106.88 209.371C1109.7 207.878 1112.85 207.131 1116.35 207.131C1119.85 207.131 1123.01 207.878 1125.82 209.371C1128.64 210.864 1130.86 213.019 1132.48 215.835C1134.1 218.608 1134.91 221.83 1134.91 225.499C1134.91 229.168 1134.08 232.411 1132.42 235.227C1130.79 238 1128.55 240.134 1125.7 241.627C1122.88 243.12 1119.72 243.867 1116.22 243.867ZM1116.22 234.395C1118.31 234.395 1120.09 233.627 1121.54 232.091C1123.03 230.555 1123.78 228.358 1123.78 225.499C1123.78 222.64 1123.05 220.443 1121.6 218.907C1120.19 217.371 1118.44 216.603 1116.35 216.603C1114.22 216.603 1112.45 217.371 1111.04 218.907C1109.63 220.4 1108.93 222.598 1108.93 225.499C1108.93 228.358 1109.61 230.555 1110.98 232.091C1112.38 233.627 1114.13 234.395 1116.22 234.395ZM1151.66 213.595C1152.94 211.632 1154.54 210.096 1156.46 208.987C1158.38 207.835 1160.52 207.259 1162.86 207.259V218.843H1159.85C1157.12 218.843 1155.08 219.44 1153.71 220.635C1152.34 221.787 1151.66 223.835 1151.66 226.779V243.355H1140.72V207.643H1151.66V213.595ZM1165.92 225.435C1165.92 221.766 1166.6 218.544 1167.97 215.771C1169.37 212.998 1171.27 210.864 1173.66 209.371C1176.05 207.878 1178.72 207.131 1181.66 207.131C1184.01 207.131 1186.14 207.622 1188.06 208.603C1190.02 209.584 1191.56 210.907 1192.67 212.571V195.995H1203.61V243.355H1192.67V238.235C1191.65 239.942 1190.17 241.307 1188.25 242.331C1186.38 243.355 1184.18 243.867 1181.66 243.867C1178.72 243.867 1176.05 243.12 1173.66 241.627C1171.27 240.091 1169.37 237.936 1167.97 235.163C1166.6 232.347 1165.92 229.104 1165.92 225.435ZM1192.67 225.499C1192.67 222.768 1191.9 220.614 1190.37 219.035C1188.87 217.456 1187.04 216.667 1184.86 216.667C1182.69 216.667 1180.83 217.456 1179.29 219.035C1177.8 220.571 1177.05 222.704 1177.05 225.435C1177.05 228.166 1177.8 230.342 1179.29 231.963C1180.83 233.542 1182.69 234.331 1184.86 234.331C1187.04 234.331 1188.87 233.542 1190.37 231.963C1191.9 230.384 1192.67 228.23 1192.67 225.499ZM20.724 307.803C17.4387 307.803 14.4947 307.27 11.892 306.203C9.28933 305.136 7.19867 303.558 5.62 301.467C4.084 299.376 3.27333 296.859 3.188 293.915H14.836C15.0067 295.579 15.5827 296.859 16.564 297.755C17.5453 298.608 18.8253 299.035 20.404 299.035C22.0253 299.035 23.3053 298.672 24.244 297.947C25.1827 297.179 25.652 296.134 25.652 294.811C25.652 293.702 25.268 292.784 24.5 292.059C23.7747 291.334 22.8573 290.736 21.748 290.267C20.6813 289.798 19.1453 289.264 17.14 288.667C14.2387 287.771 11.8707 286.875 10.036 285.979C8.20133 285.083 6.62267 283.76 5.3 282.011C3.97733 280.262 3.316 277.979 3.316 275.163C3.316 270.982 4.83067 267.718 7.86 265.371C10.8893 262.982 14.836 261.787 19.7 261.787C24.6493 261.787 28.6387 262.982 31.668 265.371C34.6973 267.718 36.3187 271.003 36.532 275.227H24.692C24.6067 273.776 24.0733 272.646 23.092 271.835C22.1107 270.982 20.852 270.555 19.316 270.555C17.9933 270.555 16.9267 270.918 16.116 271.643C15.3053 272.326 14.9 273.328 14.9 274.651C14.9 276.102 15.5827 277.232 16.948 278.043C18.3133 278.854 20.4467 279.728 23.348 280.667C26.2493 281.648 28.596 282.587 30.388 283.483C32.2227 284.379 33.8013 285.68 35.124 287.387C36.4467 289.094 37.108 291.291 37.108 293.979C37.108 296.539 36.4467 298.864 35.124 300.955C33.844 303.046 31.9667 304.71 29.492 305.947C27.0173 307.184 24.0947 307.803 20.724 307.803ZM77.507 288.923C77.507 289.947 77.443 291.014 77.315 292.123H52.547C52.7177 294.342 53.4217 296.048 54.659 297.243C55.939 298.395 57.4963 298.971 59.331 298.971C62.0617 298.971 63.9603 297.819 65.027 295.515H76.675C76.0777 297.862 74.9897 299.974 73.411 301.851C71.875 303.728 69.9337 305.2 67.587 306.267C65.2403 307.334 62.6163 307.867 59.715 307.867C56.2163 307.867 53.1017 307.12 50.371 305.627C47.6403 304.134 45.507 302 43.971 299.227C42.435 296.454 41.667 293.211 41.667 289.499C41.667 285.787 42.4137 282.544 43.907 279.771C45.443 276.998 47.5763 274.864 50.307 273.371C53.0377 271.878 56.1737 271.131 59.715 271.131C63.171 271.131 66.243 271.856 68.931 273.307C71.619 274.758 73.7097 276.827 75.203 279.515C76.739 282.203 77.507 285.339 77.507 288.923ZM66.307 286.043C66.307 284.166 65.667 282.672 64.387 281.563C63.107 280.454 61.507 279.899 59.587 279.899C57.7523 279.899 56.195 280.432 54.915 281.499C53.6777 282.566 52.9097 284.08 52.611 286.043H66.307ZM94.2245 277.595C95.5045 275.632 97.1045 274.096 99.0245 272.987C100.945 271.835 103.078 271.259 105.425 271.259V282.843H102.417C99.6858 282.843 97.6378 283.44 96.2725 284.635C94.9072 285.787 94.2245 287.835 94.2245 290.779V307.355H83.2805V271.643H94.2245V277.595ZM126.72 297.115L134.464 271.643H146.112L133.44 307.355H119.936L107.264 271.643H118.976L126.72 297.115ZM184.382 288.923C184.382 289.947 184.318 291.014 184.19 292.123H159.422C159.593 294.342 160.297 296.048 161.534 297.243C162.814 298.395 164.371 298.971 166.206 298.971C168.937 298.971 170.835 297.819 171.902 295.515H183.55C182.953 297.862 181.865 299.974 180.286 301.851C178.75 303.728 176.809 305.2 174.462 306.267C172.115 307.334 169.491 307.867 166.59 307.867C163.091 307.867 159.977 307.12 157.246 305.627C154.515 304.134 152.382 302 150.846 299.227C149.31 296.454 148.542 293.211 148.542 289.499C148.542 285.787 149.289 282.544 150.782 279.771C152.318 276.998 154.451 274.864 157.182 273.371C159.913 271.878 163.049 271.131 166.59 271.131C170.046 271.131 173.118 271.856 175.806 273.307C178.494 274.758 180.585 276.827 182.078 279.515C183.614 282.203 184.382 285.339 184.382 288.923ZM173.182 286.043C173.182 284.166 172.542 282.672 171.262 281.563C169.982 280.454 168.382 279.899 166.462 279.899C164.627 279.899 163.07 280.432 161.79 281.499C160.553 282.566 159.785 284.08 159.486 286.043H173.182ZM201.1 277.595C202.38 275.632 203.98 274.096 205.9 272.987C207.82 271.835 209.953 271.259 212.3 271.259V282.843H209.292C206.561 282.843 204.513 283.44 203.148 284.635C201.782 285.787 201.1 287.835 201.1 290.779V307.355H190.156V271.643H201.1V277.595Z" fill="#B90531"/>
</svg>
